<svg width="1072" height="465" viewBox="0 0 1072 465" fill="none" xmlns="http://www.w3.org/2000/svg">
<g style="mix-blend-mode:overlay" opacity="0.3">
<path d="M639.521 282.153C608.583 264.811 608.506 221.303 639.391 203.859L820.764 101.398L891.379 61.5056C971.485 16.2536 1071.82 72.5025 1071.95 162.754L1072 195.441C1072.23 341.89 909.765 433.684 779.531 360.674L639.521 282.153Z" fill="#F6F7FF"/>
<path d="M746.885 -21.0497C796.468 6.85983 796.468 76.6337 746.885 104.543L706.378 127.346L597.046 188.879C578.038 199.572 554.309 186.199 554.309 164.812V41.7468V-51.1334C554.309 -85.9445 592.949 -107.686 623.861 -90.2928L706.378 -43.8527L746.885 -21.0497Z" fill="#F6F7FF"/>
<path d="M665.875 551.258C616.292 579.168 554.287 544.281 554.287 488.462V442.881V319.816C554.287 298.429 578.042 285.056 597.024 295.749L706.356 357.282L788.874 403.722C819.786 421.115 819.786 464.622 788.874 482.015L706.356 528.455L665.849 551.258H665.875Z" fill="#F6F7FF"/>
<path d="M432.479 281.502C463.417 264.159 463.494 220.652 432.609 203.208L251.236 100.747L180.621 60.8544C100.541 15.5772 0.207834 71.8514 0.0522385 162.102L0.000373243 194.765C-0.233021 341.214 162.235 433.007 292.469 359.997L432.479 281.477V281.502Z" fill="#F6F7FF"/>
<path d="M327.455 -21.0497C277.872 6.85983 277.872 76.6337 327.455 104.543L367.962 127.346L477.294 188.879C496.302 199.572 520.031 186.199 520.031 164.812V41.7468V-51.1334C520.031 -85.9445 481.391 -107.686 450.479 -90.2928L367.962 -43.8527L327.455 -21.0497Z" fill="#F6F7FF"/>
<path d="M408.432 551.258C458.015 579.168 520.02 544.281 520.02 488.462V442.881V319.816C520.02 298.429 496.266 285.056 477.283 295.749L367.951 357.282L285.434 403.722C254.522 421.115 254.522 464.622 285.434 482.015L367.951 528.455L408.458 551.258H408.432Z" fill="#F6F7FF"/>
</g>
</svg>
