<svg width="1184" height="639" viewBox="0 0 1184 639" fill="none" xmlns="http://www.w3.org/2000/svg">
<g style="mix-blend-mode:plus-lighter" opacity="0.1">
<path d="M1490.19 -130.397C1593 -72.526 1593 72.1521 1490.19 130.023L1406.2 177.306L1179.49 304.895C1140.08 327.069 1090.88 299.339 1090.88 254.992V-0.18692V-192.776C1090.88 -264.958 1171 -310.039 1235.09 -273.974L1406.2 -177.68L1490.19 -130.397Z" fill="#35316F"/>
<path d="M1322.21 1056.3C1219.4 1114.17 1090.83 1041.83 1090.83 926.088V831.576V576.397C1090.83 532.05 1140.08 504.32 1179.45 526.494L1406.15 654.083L1577.25 750.378C1641.35 786.443 1641.35 876.657 1577.25 912.721L1406.15 1009.02L1322.16 1056.3H1322.21Z" fill="#35316F"/>
<path d="M838.257 496.952C902.407 460.992 902.568 370.778 838.526 334.608L462.444 122.152L316.023 39.4334C149.975 -54.4501 -58.0693 62.236 -58.3919 249.374L-58.4995 317.1C-58.9834 620.767 277.898 811.102 547.942 659.715L838.257 496.899V496.952Z" fill="#35316F"/>
<path d="M620.486 -130.397C517.674 -72.526 517.674 72.1521 620.486 130.023L704.478 177.306L931.181 304.895C970.596 327.069 1019.8 299.339 1019.8 254.992V-0.18692V-192.776C1019.8 -264.958 939.677 -310.039 875.581 -273.974L704.478 -177.68L620.486 -130.397Z" fill="#35316F"/>
<path d="M788.396 1056.3C891.208 1114.17 1019.78 1041.83 1019.78 926.088V831.576V576.397C1019.78 532.05 970.522 504.32 931.16 526.494L704.457 654.083L533.355 750.378C469.259 786.443 469.259 876.657 533.355 912.721L704.457 1009.02L788.449 1056.3H788.396Z" fill="#35316F"/>
</g>
</svg>
