<svg width="1072" height="596" viewBox="0 0 1072 596" fill="none" xmlns="http://www.w3.org/2000/svg">
<g style="mix-blend-mode:overlay" opacity="0.2">
<path d="M639.521 347.819C608.583 330.477 608.506 286.969 639.391 269.526L820.764 167.064L891.379 127.172C971.485 81.9201 1071.82 138.169 1071.95 228.42L1072 261.108C1072.23 407.557 909.765 499.35 779.531 426.34L639.521 347.819Z" fill="#F6F7FF"/>
<path d="M746.885 44.6168C796.469 72.5264 796.469 142.3 746.885 170.21L706.379 193.013L597.047 254.545C578.038 265.239 554.31 251.866 554.31 230.478V107.413V14.5331C554.31 -20.278 592.949 -42.0191 623.861 -24.6262L706.379 21.8139L746.885 44.6168Z" fill="#F6F7FF"/>
<path d="M665.875 616.925C616.292 644.834 554.287 609.947 554.287 554.128V508.548V385.483C554.287 364.095 578.041 350.722 597.024 361.416L706.356 422.948L788.874 469.388C819.786 486.781 819.786 530.289 788.874 547.682L706.356 594.122L665.849 616.925H665.875Z" fill="#F6F7FF"/>
<path d="M432.479 347.168C463.417 329.826 463.494 286.318 432.609 268.875L251.236 166.413L180.621 126.521C100.541 81.2437 0.207712 137.518 0.0521165 227.769L0.000251173 260.431C-0.233143 406.881 162.235 498.674 292.469 425.664L432.479 347.143V347.168Z" fill="#F6F7FF"/>
<path d="M327.455 44.6168C277.872 72.5264 277.872 142.3 327.455 170.21L367.962 193.013L477.294 254.545C496.302 265.239 520.031 251.866 520.031 230.478V107.413V14.5331C520.031 -20.278 481.391 -42.0191 450.479 -24.6262L367.962 21.8139L327.455 44.6168Z" fill="#F6F7FF"/>
<path d="M408.432 616.925C458.015 644.834 520.02 609.947 520.02 554.128V508.548V385.483C520.02 364.095 496.266 350.722 477.283 361.416L367.951 422.948L285.434 469.388C254.522 486.781 254.522 530.289 285.434 547.682L367.951 594.122L408.458 616.925H408.432Z" fill="#F6F7FF"/>
</g>
</svg>
