<svg width="1184" height="437" viewBox="0 0 1184 437" fill="none" xmlns="http://www.w3.org/2000/svg">
<g style="mix-blend-mode:plus-lighter" opacity="0.1">
<path d="M751.168 345.216C703.424 318.453 703.304 251.311 750.968 224.391L1030.87 66.2696L1139.84 4.70627C1263.46 -65.1279 1418.3 21.6772 1418.5 160.955L1418.58 211.4C1418.94 437.405 1168.22 579.063 967.236 466.392L751.168 345.216Z" fill="#35316F"/>
<path d="M916.856 -122.696C993.374 -79.6248 993.374 28.0525 916.856 71.1234L854.344 106.314L685.62 201.272C656.285 217.775 619.667 197.137 619.667 164.132V-25.7861V-169.122C619.667 -222.843 679.296 -256.395 727 -229.554L854.344 -157.886L916.856 -122.696Z" fill="#35316F"/>
<path d="M791.838 760.508C715.32 803.579 619.632 749.74 619.632 663.598V593.257V403.339C619.632 370.334 656.29 349.696 685.585 366.198L854.31 461.157L981.654 532.825C1029.36 559.666 1029.36 626.809 981.654 653.65L854.31 725.318L791.798 760.508H791.838Z" fill="#35316F"/>
<path d="M431.654 344.212C479.398 317.448 479.518 250.306 431.854 223.387L151.953 65.2649L42.9788 3.70156C-80.6032 -66.1716 -235.441 20.6724 -235.681 159.951L-235.761 210.356C-236.121 436.361 14.6045 578.02 215.585 465.348L431.654 344.173V344.212Z" fill="#35316F"/>
<path d="M269.577 -122.696C193.059 -79.6248 193.059 28.0525 269.577 71.1234L332.088 106.314L500.813 201.272C530.148 217.775 566.766 197.137 566.766 164.132V-25.7861V-169.122C566.766 -222.843 507.136 -256.395 459.432 -229.554L332.088 -157.886L269.577 -122.696Z" fill="#35316F"/>
<path d="M394.544 760.508C471.063 803.579 566.751 749.74 566.751 663.598V593.257V403.339C566.751 370.334 530.092 349.696 500.798 366.198L332.073 461.157L204.729 532.825C157.025 559.666 157.025 626.809 204.729 653.65L332.073 725.318L394.584 760.508H394.544Z" fill="#35316F"/>
</g>
</svg>
