<svg width="839" height="437" viewBox="0 0 839 437" fill="none" xmlns="http://www.w3.org/2000/svg">
<g style="mix-blend-mode:plus-lighter" opacity="0.1">
<path d="M697.747 297.993C747.661 270.013 747.787 199.82 697.956 171.677L405.335 6.36884L291.408 -57.9924C162.21 -131.041 0.335116 -40.2502 0.084083 105.358L0.000405234 158.054C-0.376145 394.331 261.744 542.427 471.859 424.635L697.747 297.952V297.993Z" fill="#35316F"/>
<path d="M528.305 -190.134C448.309 -145.105 448.309 -32.5344 528.305 12.4939L593.657 49.2834L770.05 148.558C800.717 165.811 839 144.234 839 109.729V-88.8199V-238.67C839 -294.833 776.66 -329.909 726.788 -301.848L593.657 -226.923L528.305 -190.134Z" fill="#35316F"/>
<path d="M658.951 733.209C738.947 778.237 838.984 721.952 838.984 631.895V558.357V359.808C838.984 325.302 800.659 303.726 770.033 320.979L593.641 420.253L460.509 495.178C410.637 523.239 410.637 593.433 460.509 621.494L593.641 696.419L658.993 733.209H658.951Z" fill="#35316F"/>
</g>
</svg>
