<svg width="154" height="61" viewBox="0 0 154 61" fill="none" xmlns="http://www.w3.org/2000/svg">
<path d="M142.426 0.616455H12.4509C6.22241 0.616455 1.17322 5.68493 1.17322 11.9372V48.7297C1.17322 54.9819 6.22241 60.0504 12.4509 60.0504H142.426C148.655 60.0504 153.704 54.9819 153.704 48.7297V11.9372C153.704 5.68493 148.655 0.616455 142.426 0.616455Z" fill="white" stroke="#9AA0A6" stroke-width="0.4"/>
<path d="M69.5442 34.7485C73.435 35.7108 75.028 37.1825 75.028 39.8712C75.028 43.041 72.6315 45.0929 68.9098 45.0929C66.2878 45.0929 63.849 44.1447 61.8754 42.3617C61.7908 42.291 61.7767 42.1495 61.8613 42.0646L63.6093 39.9702C63.6093 39.9702 63.6939 39.8995 63.7503 39.8995C63.8067 39.8995 63.8631 39.8995 63.9053 39.9561C65.6111 41.4419 67.1336 42.0787 68.9944 42.0787C70.672 42.0787 71.7152 41.3429 71.7152 40.1683C71.7152 39.107 71.1936 38.5127 68.1486 37.8051C64.5538 36.9278 62.4815 35.7957 62.4815 32.5834C62.4815 29.5976 64.8922 27.5032 68.3459 27.5032C70.6861 27.5032 72.7019 28.2108 74.4782 29.6542C74.5628 29.7249 74.5769 29.8523 74.5205 29.9372L72.9557 32.1589C72.9557 32.1589 72.8711 32.2297 72.8147 32.2438C72.7583 32.2438 72.7019 32.2438 72.6597 32.2014C71.1654 31.0693 69.7274 30.5315 68.2895 30.5315C66.8516 30.5315 65.8085 31.2532 65.8085 32.3287C65.8085 33.4608 66.3723 33.9985 69.5724 34.7768L69.5442 34.7485ZM86.1224 38.3429C86.1224 36.1212 84.7127 34.4938 82.7673 34.4938C80.8219 34.4938 79.3417 36.1495 79.3417 38.3429C79.3417 40.5363 80.8219 42.1919 82.7673 42.1919C84.7127 42.1919 86.1224 40.607 86.1224 38.3429ZM83.4299 31.5646C86.4184 31.5646 89.4493 33.8853 89.4493 38.3429C89.4493 42.8004 86.4184 45.1212 83.4299 45.1212C81.8228 45.1212 80.4976 44.5127 79.4122 43.2815V48.4608C79.4122 48.574 79.3135 48.673 79.2007 48.673H76.339C76.2262 48.673 76.1276 48.574 76.1276 48.4608V32.0457C76.1276 31.9325 76.2262 31.8334 76.339 31.8334H79.2007C79.3135 31.8334 79.4122 31.9325 79.4122 32.0457V33.5174C80.4976 32.2014 81.8228 31.5646 83.4299 31.5646ZM97.2168 42.2061C99.2891 42.2061 100.783 40.607 100.783 38.3853C100.783 36.1636 99.2327 34.5221 97.1604 34.5221C95.0882 34.5221 93.608 36.1353 93.608 38.3429C93.608 40.5504 95.1587 42.2061 97.2027 42.2061H97.2168ZM97.2168 31.5646C101.065 31.5646 104.068 34.5363 104.068 38.3429C104.068 42.1495 101.037 45.1353 97.1745 45.1353C93.3119 45.1353 90.3515 42.1778 90.3515 38.3853C90.3515 34.5929 93.3683 31.5646 97.2309 31.5646H97.2168ZM112.301 31.8334C112.414 31.8334 112.512 31.9325 112.512 32.0457V34.5221C112.512 34.6353 112.414 34.7344 112.301 34.7344H109.157V40.7061C109.157 41.6542 109.566 42.0646 110.482 42.0646C111.074 42.0646 111.61 41.9372 112.16 41.6542C112.23 41.6259 112.301 41.6259 112.357 41.6542C112.414 41.6966 112.456 41.7674 112.456 41.8381V44.2014C112.456 44.2721 112.414 44.3429 112.343 44.3853C111.539 44.8381 110.694 45.0646 109.665 45.0646C107.141 45.0646 105.858 43.7485 105.858 41.1589V34.7344H104.477C104.364 34.7344 104.265 34.6353 104.265 34.5221V32.0457C104.265 31.9325 104.364 31.8334 104.477 31.8334H105.858V28.5787C105.858 28.4655 105.957 28.3664 106.07 28.3664H108.932C109.044 28.3664 109.143 28.4655 109.143 28.5787V31.8334H112.287H112.301ZM123.268 31.8334H128.16C128.245 31.8334 128.329 31.89 128.357 31.9749L131.698 40.7768L134.743 31.9891C134.772 31.9042 134.856 31.8476 134.941 31.8476H137.915C137.915 31.8476 138.042 31.8759 138.084 31.9325C138.127 31.9891 138.127 32.0598 138.113 32.1306L133.15 45.0787C132.121 47.7532 130.951 48.7438 128.837 48.7438C127.709 48.7438 126.793 48.5032 125.778 47.9514C125.679 47.8948 125.637 47.7815 125.693 47.6825L126.666 45.5315C126.666 45.5315 126.736 45.4325 126.793 45.4183C126.849 45.4042 126.905 45.4183 126.962 45.4325C127.497 45.7297 128.033 45.8853 128.541 45.8853C129.161 45.8853 129.626 45.673 130.091 44.64L126.003 34.7344H123.339V44.64C123.339 44.7532 123.24 44.8523 123.127 44.8523H120.266C120.153 44.8523 120.054 44.7532 120.054 44.64V34.7344H118.687C118.574 34.7344 118.475 34.6353 118.475 34.5221V32.0315C118.475 31.9183 118.574 31.8193 118.687 31.8193H120.054V31.2108C120.054 28.3664 121.45 26.8664 124.086 26.8664C125.171 26.8664 125.89 27.0363 126.468 27.2061C126.553 27.2344 126.609 27.3193 126.609 27.4042V29.8381C126.609 29.8381 126.581 29.9655 126.525 30.008C126.468 30.0504 126.398 30.0646 126.341 30.0363C125.806 29.8523 125.326 29.7391 124.734 29.7391C123.734 29.7391 123.282 30.2627 123.282 31.4372V31.8334H123.268ZM116.91 31.8334C117.023 31.8334 117.122 31.9325 117.122 32.0457V44.64C117.122 44.7532 117.023 44.8523 116.91 44.8523H114.049C113.936 44.8523 113.837 44.7532 113.837 44.64V32.0457C113.837 31.9325 113.936 31.8334 114.049 31.8334H116.91ZM115.501 26.1023C116.629 26.1023 117.545 27.0221 117.545 28.1683C117.545 29.3146 116.629 30.2344 115.501 30.2344C114.373 30.2344 113.443 29.3004 113.443 28.1683C113.443 27.0363 114.359 26.1023 115.501 26.1023ZM140.678 33.0929H140.157V33.7721H140.678C140.946 33.7721 141.101 33.6447 141.101 33.4325C141.101 33.2061 140.946 33.0929 140.678 33.0929ZM141.017 34.0551L141.58 34.8617H141.101L140.594 34.1259H140.157V34.8617H139.748V32.7249H140.692C141.186 32.7249 141.51 32.9797 141.51 33.4042C141.51 33.758 141.313 33.9702 141.017 34.0551ZM140.565 32.0174C139.536 32.0174 138.761 32.8381 138.761 33.857C138.761 34.8759 139.536 35.6825 140.565 35.6825C141.595 35.6825 142.384 34.8617 142.384 33.8429C142.384 32.824 141.609 32.0174 140.58 32.0174H140.565ZM140.565 35.8947C139.438 35.8947 138.55 34.9749 138.55 33.857C138.55 32.7391 139.438 31.8193 140.58 31.8193C141.721 31.8193 142.595 32.7391 142.595 33.8429C142.595 34.9466 141.707 35.8806 140.565 35.8806V35.8947Z" fill="#1ED760"/>
<path d="M30.7771 10.5222C41.6742 10.5222 50.5131 19.3949 50.5131 30.3335C50.5131 41.2722 41.6742 50.1449 30.7771 50.1449C19.8801 50.1449 11.0412 41.2722 11.0412 30.3335C11.0412 19.3949 19.8801 10.5222 30.7771 10.5222ZM20.4722 35.5269C19.7955 35.6826 19.3726 36.376 19.5277 37.0694C19.6827 37.7628 20.3594 38.2015 21.0361 38.0458C28.0423 36.3901 34.0054 37.0694 38.742 40.0411C39.3341 40.409 40.1095 40.225 40.4619 39.6166C40.8284 39.0081 40.631 38.2156 40.039 37.8335C34.7243 34.4939 28.141 33.7156 20.4722 35.5269ZM19.1752 28.7062C18.3576 28.975 17.9065 29.8949 18.1461 30.7722C18.3858 31.6496 19.2457 32.1307 20.0634 31.876C26.3366 29.8383 34.4001 30.843 39.7006 34.3383C40.4196 34.8194 41.3641 34.5647 41.8152 33.8005C42.2663 33.0222 42.0266 32.0033 41.3077 31.5364C35.2177 27.5175 26.3225 26.3854 19.1611 28.7203L19.1752 28.7062ZM17.9911 23.0458C17.0184 23.3288 16.4545 24.3335 16.7505 25.2675C17.0466 26.2156 18.0757 26.7392 19.0625 26.4562C25.1524 24.6732 35.683 25.0128 42.0689 28.6637C42.943 29.1732 44.0848 28.8901 44.6064 28.0411C45.128 27.192 44.8461 26.1024 43.958 25.593C36.6134 21.3901 24.9832 20.9939 17.9911 23.0458Z" fill="#1ED760"/>
<path d="M68.7829 21.0079H63.5388V12.574H64.8358V19.8051H68.7829V21.0079Z" fill="#5F6368"/>
<path d="M70.3054 12.758C70.3054 12.3194 70.6437 11.9797 71.1089 11.9797C71.5741 11.9797 71.9125 12.3194 71.9125 12.758C71.9125 13.1967 71.5741 13.5222 71.1089 13.5222C70.6437 13.5222 70.3054 13.1826 70.3054 12.758ZM70.4887 14.6401H71.7292V21.008H70.4887V14.6401Z" fill="#5F6368"/>
<path d="M76.0711 14.5127C77.495 14.5127 78.4254 15.1778 78.5522 16.3099H77.354C77.2412 15.8429 76.776 15.5457 76.0711 15.5457C75.3663 15.5457 74.8447 15.8853 74.8447 16.3806C74.8447 16.7627 75.1689 17.0033 75.8597 17.1589L76.917 17.3995C78.1293 17.6825 78.6932 18.2061 78.6932 19.1401C78.6932 20.3429 77.5795 21.1353 76.0711 21.1353C74.5628 21.1353 73.576 20.4561 73.4632 19.324H74.7178C74.8729 19.8193 75.3381 20.1165 76.0993 20.1165C76.8606 20.1165 77.4386 19.7627 77.4386 19.2533C77.4386 18.8712 77.1425 18.6306 76.5082 18.475L75.3945 18.2202C74.1821 17.9372 73.6324 17.3853 73.6324 16.4372C73.6324 15.3051 74.6614 14.5127 76.0993 14.5127H76.0711Z" fill="#5F6368"/>
<path d="M82.0201 13.0552V14.6684H83.4016V15.7297H82.0201V19.0127C82.0201 19.6778 82.288 19.975 82.9223 19.975C83.1197 19.975 83.2184 19.975 83.4016 19.9467V20.9939C83.2043 21.0222 82.9646 21.0646 82.725 21.0646C81.3294 21.0646 80.7796 20.5693 80.7796 19.3382V15.7439H79.7646V14.6825H80.7796V13.0693H82.0342L82.0201 13.0552Z" fill="#5F6368"/>
<path d="M90.3515 19.2957C90.0696 20.4419 89.0546 21.1353 87.6026 21.1353C85.7841 21.1353 84.6704 19.8901 84.6704 17.8523C84.6704 15.8146 85.8123 14.5269 87.6026 14.5269C89.3929 14.5269 90.4361 15.7438 90.4361 17.7391V18.1778H85.9532V18.2486C85.9955 19.3665 86.644 20.074 87.6449 20.074C88.4061 20.074 88.9277 19.8052 89.1533 19.2957H90.3656H90.3515ZM85.9391 17.2438H89.1392C89.111 16.2391 88.5048 15.5882 87.5744 15.5882C86.644 15.5882 85.9955 16.2391 85.9251 17.2438H85.9391Z" fill="#5F6368"/>
<path d="M92.0995 14.6401H93.3119V15.6589H93.4106C93.7207 14.9514 94.3551 14.5269 95.2996 14.5269C96.7093 14.5269 97.4987 15.3759 97.4987 16.8901V21.008H96.2441V17.2014C96.2441 16.1825 95.8071 15.6731 94.8767 15.6731C93.9463 15.6731 93.3542 16.2957 93.3542 17.2863V21.008H92.0995V14.6401Z" fill="#5F6368"/>
<path d="M102.56 17.824C102.56 15.7721 103.701 14.5127 105.562 14.5127C107.423 14.5127 108.551 15.758 108.551 17.824C108.551 19.8901 107.409 21.1353 105.562 21.1353C103.716 21.1353 102.56 19.8901 102.56 17.824ZM107.254 17.824C107.254 16.4372 106.634 15.6306 105.548 15.6306C104.463 15.6306 103.842 16.4372 103.842 17.824C103.842 19.2108 104.449 20.0174 105.548 20.0174C106.648 20.0174 107.254 19.2108 107.254 17.824Z" fill="#5F6368"/>
<path d="M110.228 14.6401H111.441V15.6589H111.539C111.85 14.9514 112.484 14.5269 113.429 14.5269C114.838 14.5269 115.628 15.3759 115.628 16.8901V21.008H114.373V17.2014C114.373 16.1825 113.936 15.6731 113.006 15.6731C112.075 15.6731 111.483 16.2957 111.483 17.2863V21.008H110.228V14.6401Z" fill="#5F6368"/>
</svg>
