<svg width="154" height="61" viewBox="0 0 154 61" fill="none" xmlns="http://www.w3.org/2000/svg">
<path d="M141.535 0.616455H11.5597C5.33118 0.616455 0.281982 5.68493 0.281982 11.9372V48.7297C0.281982 54.9819 5.33118 60.0504 11.5597 60.0504H141.535C147.764 60.0504 152.813 54.9819 152.813 48.7297V11.9372C152.813 5.68493 147.764 0.616455 141.535 0.616455Z" fill="white" stroke="#9AA0A6" stroke-width="0.4"/>
<path d="M67.8917 21.3617H62.6476V12.9277H63.9445V20.1589H67.8917V21.3617Z" fill="#5F6368"/>
<path d="M69.4142 13.1118C69.4142 12.6731 69.7525 12.3335 70.2177 12.3335C70.6829 12.3335 71.0213 12.6731 71.0213 13.1118C71.0213 13.5505 70.6829 13.8759 70.2177 13.8759C69.7525 13.8759 69.4142 13.5363 69.4142 13.1118ZM69.5974 14.9939H70.838V21.3618H69.5974V14.9939Z" fill="#5F6368"/>
<path d="M75.1799 14.8665C76.6037 14.8665 77.5341 15.5315 77.661 16.6636H76.4627C76.3499 16.1966 75.8847 15.8995 75.1799 15.8995C74.475 15.8995 73.9534 16.2391 73.9534 16.7344C73.9534 17.1165 74.2777 17.357 74.9684 17.5127L76.0257 17.7532C77.238 18.0363 77.8019 18.5599 77.8019 19.4938C77.8019 20.6966 76.6883 21.4891 75.1799 21.4891C73.6715 21.4891 72.6847 20.8099 72.5719 19.6778H73.8265C73.9816 20.1731 74.4468 20.4702 75.2081 20.4702C75.9693 20.4702 76.5473 20.1165 76.5473 19.607C76.5473 19.2249 76.2512 18.9844 75.6169 18.8287L74.5032 18.574C73.2909 18.291 72.7411 17.7391 72.7411 16.791C72.7411 15.6589 73.7702 14.8665 75.2081 14.8665H75.1799Z" fill="#5F6368"/>
<path d="M81.1289 13.4089V15.0221H82.5105V16.0835H81.1289V19.3665C81.1289 20.0316 81.3968 20.3287 82.0312 20.3287C82.2285 20.3287 82.3272 20.3287 82.5105 20.3004V21.3476C82.3131 21.3759 82.0735 21.4184 81.8338 21.4184C80.4382 21.4184 79.8884 20.9231 79.8884 19.692V16.0976H78.8734V15.0363H79.8884V13.4231H81.143L81.1289 13.4089Z" fill="#5F6368"/>
<path d="M89.4603 19.6495C89.1784 20.7957 88.1634 21.4891 86.7114 21.4891C84.8928 21.4891 83.7792 20.2438 83.7792 18.2061C83.7792 16.1684 84.921 14.8806 86.7114 14.8806C88.5017 14.8806 89.5449 16.0976 89.5449 18.0929V18.5316H85.062V18.6023C85.1043 19.7202 85.7528 20.4278 86.7537 20.4278C87.5149 20.4278 88.0365 20.1589 88.2621 19.6495H89.4744H89.4603ZM85.0479 17.5976H88.248C88.2198 16.5929 87.6136 15.9419 86.6832 15.9419C85.7528 15.9419 85.1043 16.5929 85.0338 17.5976H85.0479Z" fill="#5F6368"/>
<path d="M91.2084 14.9938H92.4207V16.0127H92.5194C92.8295 15.3051 93.4639 14.8806 94.4084 14.8806C95.8181 14.8806 96.6076 15.7297 96.6076 17.2438V21.3617H95.3529V17.5551C95.3529 16.5363 94.9159 16.0268 93.9855 16.0268C93.0551 16.0268 92.463 16.6495 92.463 17.64V21.3617H91.2084V14.9938Z" fill="#5F6368"/>
<path d="M101.668 18.1778C101.668 16.1259 102.81 14.8665 104.671 14.8665C106.532 14.8665 107.66 16.1117 107.66 18.1778C107.66 20.2438 106.518 21.4891 104.671 21.4891C102.824 21.4891 101.668 20.2438 101.668 18.1778ZM106.363 18.1778C106.363 16.791 105.743 15.9844 104.657 15.9844C103.572 15.9844 102.951 16.791 102.951 18.1778C102.951 19.5646 103.557 20.3712 104.657 20.3712C105.757 20.3712 106.363 19.5646 106.363 18.1778Z" fill="#5F6368"/>
<path d="M109.337 14.9938H110.55V16.0127H110.648C110.958 15.3051 111.593 14.8806 112.537 14.8806C113.947 14.8806 114.736 15.7297 114.736 17.2438V21.3617H113.482V17.5551C113.482 16.5363 113.045 16.0268 112.114 16.0268C111.184 16.0268 110.592 16.6495 110.592 17.64V21.3617H109.337V14.9938Z" fill="#5F6368"/>
<path d="M112.594 47.0034C112.453 47.4986 112.34 47.8949 112.227 48.3052H109.577V27.7864H112.678V35.2722C112.918 35.0034 113.031 34.876 113.143 34.7486C113.707 34.0835 114.398 33.6732 115.258 33.5458C116.569 33.3477 117.697 33.8996 118.077 35.159C118.402 36.192 118.585 37.31 118.641 38.3854C118.754 40.8335 118.881 43.2817 118.373 45.7156C118.331 45.9137 118.275 46.126 118.204 46.31C117.824 47.442 117.189 48.3477 115.92 48.5034C114.68 48.659 113.623 48.2769 112.833 47.2581C112.791 47.1873 112.72 47.1307 112.594 46.9751V47.0034ZM112.706 41.2581C112.706 42.4892 112.706 43.7062 112.706 44.9373C112.706 45.6873 113.059 46.0977 113.778 46.2109C114.398 46.31 114.863 46.0128 115.103 45.3477C115.187 45.1213 115.258 44.8666 115.272 44.626C115.314 42.3618 115.328 40.0977 115.342 37.8335C115.342 37.5222 115.258 37.2109 115.187 36.9137C115.075 36.4326 114.891 35.9798 114.342 35.8807C113.75 35.7675 113.313 36.0788 113.031 36.5458C112.847 36.843 112.735 37.2392 112.72 37.593C112.678 38.8241 112.706 40.0411 112.706 41.2722V41.2581Z" fill="black"/>
<path d="M81.876 33.8572H85.1324C85.1324 34.126 85.1324 34.3666 85.1324 34.6072C85.1324 37.8477 85.1324 41.0883 85.1324 44.3289C85.1324 44.6543 85.1324 44.994 85.1747 45.3194C85.2593 45.843 85.4566 46.2958 86.1051 46.2958C86.7677 46.2958 87.4302 45.7298 87.4443 45.1496C87.4725 44.4704 87.4443 43.777 87.4443 43.0977C87.4443 40.2251 87.4443 37.3666 87.4443 34.494C87.4443 33.9845 87.5712 33.8006 88.1069 33.8147C88.9527 33.8572 89.8126 33.8147 90.7008 33.8147V48.2911H88.1915C88.0928 47.7534 87.9941 47.2157 87.8672 46.5647C87.6699 46.8477 87.543 47.0175 87.4161 47.2015C86.5703 48.3336 85.4284 48.7298 84.061 48.5317C82.8346 48.3477 82.1297 47.4562 81.9324 45.9562C81.876 45.5176 81.8478 45.093 81.8478 44.6543C81.8478 41.2298 81.8478 37.7911 81.8478 34.3666C81.8478 34.2251 81.8619 34.0836 81.876 33.8572Z" fill="black"/>
<path d="M107.547 48.3052H105.009C104.911 47.7675 104.812 47.2439 104.699 46.5788C104.53 46.8194 104.417 46.9609 104.304 47.1166C103.487 48.2911 102.331 48.7298 100.935 48.5458C99.878 48.4043 99.2013 47.7534 98.9335 46.7345C98.7784 46.1401 98.6797 45.5034 98.6656 44.8949C98.6374 41.343 98.6656 37.7911 98.6656 34.2392C98.6656 34.1401 98.6656 34.0411 98.6938 33.8288C99.6947 33.8288 100.682 33.8147 101.668 33.8571C101.767 33.8571 101.922 34.2675 101.922 34.4939C101.936 37.692 101.922 40.8901 101.922 44.0883C101.922 44.3571 101.922 44.626 101.95 44.8949C102.035 45.942 102.303 46.31 102.923 46.2958C103.726 46.2675 104.262 45.6449 104.276 44.7534C104.276 41.343 104.29 37.9326 104.276 34.5364C104.276 33.9562 104.445 33.7722 105.009 33.8147C105.658 33.8571 106.306 33.8571 106.941 33.8147C107.448 33.7864 107.575 33.9845 107.561 34.4515C107.533 35.9232 107.561 37.409 107.561 38.8807C107.561 41.7675 107.561 44.6543 107.561 47.5411C107.561 47.7817 107.561 48.0222 107.561 48.3052H107.547Z" fill="black"/>
<path d="M70.9225 41.0741C71.0916 39.5741 71.1621 38.0599 71.4582 36.5882C71.8247 34.8052 72.9666 33.8429 74.6441 33.6307C77.8583 33.2062 79.564 34.4373 79.9587 37.692C80.2689 40.126 80.283 42.5882 79.8741 45.008C79.3244 48.2911 75.6309 49.8194 72.8538 47.9231C71.585 47.0599 71.3172 45.7014 71.1621 44.3288C71.0494 43.2533 71.0494 42.1779 70.993 41.1024C70.9648 41.1024 70.9225 41.1024 70.8943 41.0882L70.9225 41.0741ZM76.7869 41.1307C76.7869 41.1307 76.801 41.1307 76.8151 41.1307C76.8151 40.2392 76.8433 39.3477 76.8151 38.4562C76.7869 37.8335 76.7164 37.225 76.5895 36.6165C76.4908 36.1354 76.1666 35.8099 75.6309 35.7958C75.0952 35.7958 74.771 36.1071 74.6582 36.5882C74.5454 37.0269 74.4327 37.4797 74.4327 37.9326C74.4045 40.0411 74.4045 42.1637 74.4327 44.2722C74.4327 44.7675 74.5172 45.2911 74.7146 45.7156C74.8556 45.9986 75.2926 46.3099 75.6027 46.3099C75.9129 46.3099 76.3358 46.0128 76.5049 45.7297C76.7164 45.376 76.7728 44.8948 76.7869 44.4703C76.8292 43.3524 76.7869 42.2345 76.7869 41.1165V41.1307Z" fill="black"/>
<path d="M61.1814 28.4797C62.1964 28.4797 63.1409 28.4514 64.0713 28.508C64.2264 28.508 64.466 28.8194 64.5083 29.0175C65.1568 32.0175 65.7771 35.0316 66.3973 38.0458C66.4114 38.1165 66.4396 38.1873 66.5383 38.2722C66.7498 37.2392 66.9471 36.2061 67.1727 35.1873C67.6238 33.1212 68.089 31.0552 68.526 28.975C68.6106 28.5929 68.7656 28.4656 69.1463 28.4656C70.0203 28.4939 70.8943 28.4656 71.8529 28.4656C71.7683 28.8477 71.6978 29.159 71.6133 29.4703C70.4996 33.4326 69.3859 37.3807 68.2863 41.3429C68.1877 41.6967 68.1454 42.0788 68.1454 42.4467C68.1313 44.3712 68.1454 46.3099 68.1454 48.291H64.9312C64.9312 47.8382 64.903 47.3995 64.9312 46.9467C65.1568 43.6071 64.6634 40.3948 63.6343 37.2109C62.7603 34.5505 62.1118 31.8194 61.3647 29.1165C61.3083 28.9326 61.2801 28.7627 61.2096 28.4797H61.1814Z" fill="black"/>
<path d="M128.791 42.1779H123.378C123.35 43.3949 123.251 44.5694 123.603 45.7156C123.758 46.1968 124.139 46.3666 124.633 46.3524C125.154 46.3383 125.535 46.0977 125.662 45.6024C125.803 45.0647 125.859 44.5128 125.972 43.9043C126.86 43.9468 127.762 44.0034 128.65 44.0458C129.059 46.3807 127.861 48.1071 125.591 48.4751C125.055 48.56 124.506 48.5883 123.984 48.5458C122.123 48.4185 121.01 47.5128 120.544 45.6732C120.361 44.9515 120.206 44.2015 120.22 43.4656C120.22 41.3713 120.15 39.2628 120.417 37.1968C120.826 34.0128 123.97 32.5269 126.874 33.9845C127.734 34.409 128.227 35.1449 128.453 36.0505C128.622 36.7156 128.749 37.3949 128.777 38.0741C128.819 39.4185 128.791 40.7628 128.791 42.192V42.1779ZM125.831 40.1968C125.746 38.9656 125.704 37.7911 125.577 36.6307C125.521 36.093 125.154 35.7392 124.562 35.7251C123.97 35.7251 123.589 36.0364 123.533 36.5883C123.406 37.7769 123.364 38.9656 123.293 40.1826H125.831V40.1968Z" fill="black"/>
<path d="M93.21 31.0977H89.9677V28.5222H99.596V31.0835H96.3818V48.3052H93.21V31.0977Z" fill="black"/>
<path d="M48.6914 21.4042C48.2121 18.291 46.605 16.8618 43.4332 16.6637C39.3591 16.3948 35.285 16.2957 31.211 16.1118C30.9008 16.0976 30.5907 16.0693 30.2806 16.041H29.5475C27.6867 16.0835 25.8259 16.1118 23.9651 16.1967C21.3994 16.324 18.8196 16.4372 16.268 16.6637C13.0962 16.9325 11.475 18.4891 11.0803 21.6448C10.8124 23.6684 10.7279 25.7061 10.5728 27.7438C10.5305 28.225 10.4882 28.7061 10.4459 29.1872V30.0646C10.5587 31.7627 10.6292 33.4608 10.7702 35.1448C10.8688 36.3193 11.0098 37.4797 11.2354 38.6118C11.6865 40.8618 13.2231 42.3901 15.5068 42.5882C19.1297 42.8854 22.7668 43.1401 26.4039 43.1825C30.8444 43.2533 35.285 43.1259 39.7397 43.0269C41.1071 42.9986 42.5028 42.8712 43.8702 42.6731C46.8729 42.2203 48.2403 40.9608 48.6914 37.975C49.5372 32.4561 49.5372 26.9089 48.6914 21.4042ZM26.0655 35.541V23.8382C29.4347 25.791 32.7476 27.7014 36.1873 29.6825C32.7476 31.6778 29.4488 33.574 26.0655 35.541Z" fill="#FE0000"/>
</svg>
