<svg width="33" height="27" viewBox="0 0 33 27" fill="none" xmlns="http://www.w3.org/2000/svg">
<path d="M26.9194 2.34189C27.0048 1.99602 27.4965 1.99602 27.5819 2.34189V2.34189C27.9464 3.81827 29.0992 4.971 30.5755 5.33546V5.33546C30.9214 5.42084 30.9214 5.91255 30.5755 5.99794V5.99794C29.0992 6.3624 27.9464 7.51512 27.5819 8.9915V8.9915C27.4965 9.33738 27.0048 9.33738 26.9194 8.9915V8.9915C26.555 7.51512 25.4022 6.3624 23.9258 5.99794V5.99794C23.5799 5.91255 23.5799 5.42084 23.9258 5.33546V5.33546C25.4022 4.971 26.555 3.81827 26.9194 2.34189V2.34189Z" fill="#35316F"/>
<path d="M30.561 0.876569C30.5955 0.736572 30.7946 0.736572 30.8291 0.876569V0.876569C30.9767 1.47415 31.4432 1.94073 32.0408 2.08825V2.08825C32.1808 2.12281 32.1808 2.32184 32.0408 2.3564V2.3564C31.4432 2.50392 30.9767 2.9705 30.8291 3.56808V3.56808C30.7946 3.70808 30.5955 3.70808 30.561 3.56808V3.56808C30.4135 2.9705 29.9469 2.50392 29.3493 2.3564V2.3564C29.2093 2.32184 29.2093 2.12281 29.3493 2.08825V2.08825C29.9469 1.94073 30.4135 1.47415 30.561 0.876569V0.876569Z" fill="#B8B4F3"/>
<path d="M19.5007 18.4962C18.5648 17.9686 18.5624 16.6452 19.4967 16.1146L24.9835 12.9978L27.1197 11.7843C29.543 10.4078 32.5783 12.1188 32.5822 14.8642L32.5838 15.8585C32.5908 20.3133 27.6759 23.1056 23.7362 20.8847L19.5007 18.4962Z" fill="#35316F"/>
<path d="M22.678 9.29267C24.178 10.1416 24.178 12.2641 22.678 13.1131L21.4526 13.8067L18.1451 15.6784C17.5701 16.0037 16.8523 15.5969 16.8523 14.9464V11.2029V8.37756C16.8523 7.31865 18.0212 6.65731 18.9563 7.18638L21.4526 8.59903L22.678 9.29267Z" fill="#B8B4F3"/>
<path d="M20.2271 26.7016C18.7272 27.5506 16.8514 26.4894 16.8514 24.7914V23.4049V19.6614C16.8514 19.0109 17.57 18.6041 18.1443 18.9293L21.4517 20.8011L23.948 22.2137C24.8831 22.7428 24.8831 24.0663 23.948 24.5953L21.4517 26.008L20.2264 26.7016H20.2271Z" fill="#B8B4F3"/>
<path d="M13.1666 18.4961C14.1025 17.9685 14.1049 16.6451 13.1705 16.1145L7.68373 12.9977L5.54754 11.7842C3.12501 10.4069 0.0897797 12.1187 0.0850727 14.8641L0.0835037 15.8576C0.0764432 20.3124 4.99133 23.1047 8.93109 20.8838L13.1666 18.4953V18.4961Z" fill="#35316F"/>
<path d="M9.98947 9.29267C8.48951 10.1416 8.48951 12.2641 9.98947 13.1131L11.2149 13.8067L14.5223 15.6784C15.0974 16.0037 15.8152 15.5969 15.8152 14.9464V11.2029V8.37756C15.8152 7.31865 14.6463 6.65731 13.7111 7.18638L11.2149 8.59903L9.98947 9.29267Z" fill="#B8B4F3"/>
<path d="M12.4392 26.7016C13.9392 27.5506 15.8149 26.4894 15.8149 24.7914V23.4049V19.6614C15.8149 19.0109 15.0963 18.6041 14.522 18.9293L11.2146 20.8011L8.71831 22.2137C7.78319 22.7428 7.78319 24.0663 8.71831 24.5953L11.2146 26.008L12.44 26.7016H12.4392Z" fill="#B8B4F3"/>
</svg>
