<svg width="28" height="28" viewBox="0 0 28 28" fill="none" xmlns="http://www.w3.org/2000/svg">
<path d="M19.5658 4.39343H8.32722C5.25631 4.39343 2.76685 6.8829 2.76685 9.95381V20.6269C2.76685 23.6978 5.25631 26.1873 8.32722 26.1873H19.5658C22.6367 26.1873 25.1262 23.6978 25.1262 20.6269V9.95381C25.1262 6.8829 22.6367 4.39343 19.5658 4.39343Z" fill="#B8B4F3"/>
<path d="M25.0911 21.0385C24.9985 22.4417 24.3764 23.7579 23.3508 24.7201C22.3252 25.6823 20.972 26.2191 19.5657 26.222H8.32739C6.91532 26.2185 5.55707 25.677 4.53052 24.7074C3.50398 23.7378 2.88597 22.4129 2.802 21.0033L25.0911 21.0385ZM13.9465 9.8949C14.6401 9.89493 15.3057 10.1701 15.7961 10.6605C16.2865 11.151 16.5618 11.8166 16.5618 12.5101C16.5464 13.0707 16.345 13.6049 15.9993 14.0385C16.0008 14.0398 16.0027 14.041 16.0042 14.0424C16.5602 14.5632 16.8876 15.2829 16.9153 16.0443C16.8876 16.8047 16.5597 17.5234 16.0032 18.0424C15.4467 18.5612 14.707 18.8383 13.9465 18.8129C13.1861 18.8383 12.4464 18.5613 11.8899 18.0424C11.3334 17.5234 11.0054 16.8047 10.9778 16.0443C11.0054 15.283 11.3329 14.5632 11.8889 14.0424C11.89 14.0413 11.8907 14.0395 11.8918 14.0385C11.5465 13.605 11.3466 13.0703 11.3313 12.5101C11.3313 11.8165 11.6065 11.151 12.0969 10.6605C12.5874 10.1701 13.2529 9.8949 13.9465 9.8949ZM13.9465 15.0316C13.6608 15.0288 13.3839 15.1296 13.1672 15.3158C12.9505 15.5022 12.8088 15.7613 12.7688 16.0443C12.8114 16.3251 12.9538 16.581 13.1702 16.765C13.3866 16.949 13.6625 17.0485 13.9465 17.0453C14.2306 17.0485 14.5064 16.949 14.7229 16.765C14.9393 16.581 15.0817 16.3251 15.1243 16.0443C15.0843 15.7613 14.9434 15.5022 14.7268 15.3158C14.5101 15.1294 14.2324 15.0288 13.9465 15.0316ZM13.9465 11.7914C13.7396 11.7781 13.5354 11.8458 13.3772 11.9799C13.2191 12.1139 13.1188 12.304 13.0979 12.5101C13.1315 12.7108 13.2356 12.8933 13.3909 13.0248C13.5461 13.1562 13.7431 13.2279 13.9465 13.2279C14.15 13.2279 14.3469 13.1562 14.5022 13.0248C14.6575 12.8933 14.7606 12.7108 14.7942 12.5101C14.7733 12.304 14.6739 12.1139 14.5159 11.9799C14.3577 11.8459 14.1534 11.7782 13.9465 11.7914ZM9.23462 1.77771C9.46892 1.77773 9.69394 1.87082 9.85962 2.0365C10.0253 2.20219 10.1184 2.42719 10.1184 2.6615V6.0072C10.1153 6.24056 10.0207 6.46327 9.85571 6.6283C9.69069 6.79332 9.46797 6.88792 9.23462 6.89099C9.00127 6.88794 8.77856 6.79329 8.61353 6.6283C8.4485 6.46327 8.3539 6.24056 8.35083 6.0072V2.6615C8.35083 2.42717 8.44392 2.20219 8.60962 2.0365C8.77531 1.87082 9.0003 1.77771 9.23462 1.77771ZM18.6594 1.77771C18.8935 1.77783 19.1179 1.87107 19.2834 2.0365C19.4491 2.20219 19.5422 2.42717 19.5422 2.6615V6.0072C19.5392 6.24047 19.4454 6.46329 19.2805 6.6283C19.1156 6.79323 18.8926 6.88783 18.6594 6.89099C18.426 6.88794 18.2024 6.79333 18.0374 6.6283C17.8725 6.4633 17.7787 6.24044 17.7756 6.0072V2.6615C17.7756 2.42717 17.8687 2.20219 18.0344 2.0365C18.2001 1.87093 18.4252 1.77771 18.6594 1.77771Z" fill="#35316F"/>
</svg>
