<svg width="28" height="27" viewBox="0 0 28 27" fill="none" xmlns="http://www.w3.org/2000/svg">
<path d="M13.9446 25.5557C20.6948 25.5557 26.1669 20.0836 26.1669 13.3335C26.1669 6.58334 20.6948 1.11127 13.9446 1.11127C7.19449 1.11127 1.72241 6.58334 1.72241 13.3335C1.72241 20.0836 7.19449 25.5557 13.9446 25.5557Z" fill="#B8B4F3"/>
<path d="M14.1521 20.8748C12.1832 20.8501 10.2591 20.2834 8.59103 19.237C8.40801 19.0981 8.28297 18.8963 8.24008 18.6706C8.19719 18.4448 8.23949 18.2112 8.35881 18.0148C8.49595 17.8291 8.69895 17.7028 8.92619 17.6619C9.15344 17.621 9.38772 17.6686 9.58103 17.7948C10.8614 18.6396 12.3616 19.0898 13.8955 19.0898C15.4294 19.0898 16.9296 18.6396 18.2099 17.7948C18.4038 17.6668 18.6399 17.6194 18.8682 17.6628C19.0964 17.7061 19.2987 17.8368 19.4321 18.027C19.5571 18.2218 19.6027 18.4571 19.5595 18.6844C19.5164 18.9118 19.3876 19.1139 19.1999 19.2493C17.722 20.2923 15.961 20.8594 14.1521 20.8748Z" fill="#35316F"/>
</svg>
