<svg width="7" height="11" viewBox="0 0 7 11" fill="none" xmlns="http://www.w3.org/2000/svg">
<path d="M4.87218 1.85098H6.30803C6.44012 1.85098 6.54733 1.75668 6.54733 1.64048V0.37749C6.54733 0.261295 6.44012 0.166992 6.30803 0.166992H4.87218C3.42101 0.166992 2.23978 1.20559 2.23978 2.48247V3.95596H0.564626C0.432528 3.95596 0.325317 4.05026 0.325317 4.16646V5.42945C0.325317 5.54564 0.432528 5.63995 0.564626 5.63995H2.23978V10.0604C2.23978 10.1766 2.34699 10.2709 2.47909 10.2709H3.91494C4.04704 10.2709 4.15425 10.1766 4.15425 10.0604V5.63995H5.82941C5.93231 5.63995 6.02373 5.58185 6.05675 5.49597L6.53537 4.23298C6.55978 4.16899 6.54733 4.09826 6.50234 4.04311C6.45688 3.98838 6.38508 3.95596 6.30803 3.95596H4.15425V2.48247C4.15425 2.13431 4.47636 1.85098 4.87218 1.85098Z" fill="white"/>
</svg>
