<svg width="11" height="12" viewBox="0 0 11 12" fill="none" xmlns="http://www.w3.org/2000/svg">
<path d="M1.38276 2.95956C2.11421 2.95956 2.70717 2.33442 2.70717 1.56327C2.70717 0.792129 2.11421 0.166992 1.38276 0.166992C0.651309 0.166992 0.0583496 0.792129 0.0583496 1.56327C0.0583496 2.33442 0.651309 2.95956 1.38276 2.95956Z" fill="white"/>
<path d="M2.48644 3.89209H0.279085C0.157239 3.89209 0.0583496 3.99635 0.0583496 4.1248V11.1062C0.0583496 11.2347 0.157239 11.3389 0.279085 11.3389H2.48644C2.60828 11.3389 2.70717 11.2347 2.70717 11.1062V4.1248C2.70717 3.99635 2.60828 3.89209 2.48644 3.89209Z" fill="white"/>
<path d="M9.06422 3.50562C8.1208 3.16492 6.94075 3.46419 6.23307 4.00083C6.20879 3.90076 6.12226 3.82629 6.0194 3.82629H3.81204C3.6902 3.82629 3.59131 3.93055 3.59131 4.05901V11.0404C3.59131 11.1689 3.6902 11.2731 3.81204 11.2731H6.0194C6.14124 11.2731 6.24013 11.1689 6.24013 11.0404V6.02311C6.59684 5.69917 7.05641 5.59585 7.43254 5.76433C7.7972 5.92677 8.00601 6.32331 8.00601 6.85157V11.0404C8.00601 11.1689 8.1049 11.2731 8.22675 11.2731H10.4341C10.5559 11.2731 10.6548 11.1689 10.6548 11.0404V6.38289C10.6297 4.47045 9.77631 3.76253 9.06422 3.50562Z" fill="white"/>
</svg>
