<svg width="27" height="28" viewBox="0 0 27 28" fill="none" xmlns="http://www.w3.org/2000/svg">
<path d="M13.5558 25.9447C20.1525 25.9447 25.5002 20.597 25.5002 14.0002C25.5002 7.4035 20.1525 2.05579 13.5558 2.05579C6.95904 2.05579 1.61133 7.4035 1.61133 14.0002C1.61133 20.597 6.95904 25.9447 13.5558 25.9447Z" fill="#B8B4F3"/>
<path fill-rule="evenodd" clip-rule="evenodd" d="M21.1525 11.2052C21.1472 11.5416 21.0655 11.8724 20.9136 12.1727C22.2772 13.3889 23.8254 14.3807 25.5003 15.111C25.4261 15.7174 25.3023 16.3166 25.13 16.9027C23.0607 16.0512 21.1597 14.8377 19.5161 13.3193C19.3399 13.3615 19.1598 13.3855 18.9786 13.391C18.4041 13.3878 17.8543 13.1574 17.4492 12.7501C17.044 12.3427 16.8167 11.7916 16.8167 11.2171C16.8128 10.9425 16.8656 10.6701 16.9719 10.4168C15.2056 7.94147 14.0736 5.07049 13.6753 2.05573C14.3143 2.07696 14.95 2.15693 15.5744 2.29461C15.961 4.78212 16.9042 7.15025 18.3336 9.22239C18.5387 9.13144 18.756 9.07108 18.9786 9.04323C19.5531 9.04322 20.1042 9.27061 20.5116 9.67571C20.9189 10.0808 21.1493 10.6307 21.1525 11.2052ZM14.1945 17.4091C14.5826 17.7297 14.8467 18.1756 14.9413 18.67C16.3339 18.8702 17.7388 18.974 19.1457 18.9806C20.9895 18.976 22.8289 18.8001 24.6402 18.455C24.3561 19.1506 24.0083 19.8184 23.601 20.4497C22.1251 20.6601 20.6365 20.7678 19.1457 20.7722C17.6346 20.77 16.1257 20.6583 14.6307 20.4378C15.7323 22.0563 16.9927 23.5608 18.3932 24.9289C17.7863 25.1936 17.1592 25.4093 16.5179 25.5739C15.2281 24.2368 14.0572 22.7901 13.0182 21.25H12.8152C12.3275 21.2492 11.8545 21.0836 11.4728 20.78C11.0912 20.4764 10.8234 20.0528 10.7129 19.5778C7.52389 18.7003 4.4899 17.3344 1.71877 15.5286C1.65283 15.0216 1.61694 14.511 1.61127 13.9997V13.307C4.45993 15.3573 7.64536 16.8934 11.0235 17.8458C9.8929 15.6103 9.03089 13.2488 8.45543 10.8106C7.97125 10.6987 7.54002 10.4243 7.23358 10.0331C6.92713 9.64185 6.76397 9.15746 6.77127 8.66057C6.77104 8.29474 6.86417 7.9349 7.04183 7.61511C7.21949 7.29531 7.47582 7.02614 7.78655 6.83307C7.65966 5.77861 7.59187 4.71788 7.58349 3.65584C8.15627 3.32751 8.7556 3.04783 9.37516 2.81973V3.46473C9.38108 4.51424 9.44088 5.56275 9.55432 6.60612C9.94159 6.71839 10.2895 6.93729 10.5583 7.23784C10.8271 7.53838 11.0059 7.90846 11.0744 8.3058C11.143 8.70315 11.0983 9.11176 10.9457 9.48496C10.7931 9.85817 10.5386 10.1809 10.2113 10.4164C10.7477 12.6659 11.5412 14.8462 12.5763 16.9142H12.8152C13.3185 16.9136 13.8063 17.0886 14.1945 17.4091Z" fill="#35316F"/>
</svg>
