<svg width="11" height="12" viewBox="0 0 11 12" fill="none" xmlns="http://www.w3.org/2000/svg">
<path d="M5.5 0C6.9935 3.75772e-07 7.18099 0.00688872 7.76758 0.0341797C8.66131 0.076062 9.44695 0.301184 10.0771 0.948242C10.7069 1.59517 10.926 2.40103 10.9668 3.31836C10.9934 3.92071 11 4.11381 11 5.64746C11 7.18074 10.9934 7.37329 10.9668 7.97559C10.926 8.89318 10.7073 9.69965 10.0771 10.3467C9.44695 10.9937 8.66131 11.2179 7.76758 11.2598C7.18098 11.2871 6.99351 11.2939 5.5 11.2939C4.00659 11.2939 3.81883 11.287 3.23242 11.2598C2.33872 11.2179 1.55303 10.9937 0.922852 10.3467C0.292673 9.69964 0.0740016 8.8932 0.0332031 7.97559C0.00662274 7.37329 1.12528e-06 7.18074 0 5.64746C0 4.11381 0.00662041 3.92071 0.0332031 3.31836C0.0740136 2.40098 0.292974 1.59519 0.922852 0.948242C1.55305 0.301184 2.33869 0.076062 3.23242 0.0341797C3.81883 0.00689791 4.00659 0 5.5 0ZM5.49902 1.0166C4.03121 1.0166 3.85679 1.02253 3.27734 1.0498C2.65127 1.07898 2.06991 1.20817 1.62305 1.66699C1.17632 2.12579 1.05087 2.72249 1.02246 3.36523C0.995894 3.96019 0.990235 4.13927 0.990234 5.64648C0.990234 7.15425 0.995878 7.33342 1.02246 7.92871C1.05088 8.5715 1.1762 9.16815 1.62305 9.62695C2.0699 10.0857 2.65131 10.214 3.27734 10.2432C3.85681 10.2704 4.03119 10.2764 5.49902 10.2764C6.96739 10.2764 7.142 10.2705 7.72168 10.2432C8.34754 10.214 8.92819 10.0854 9.375 9.62695C9.82185 9.16815 9.94814 8.5715 9.97656 7.92871C10.0031 7.33342 10.0088 7.15425 10.0088 5.64648C10.0088 4.13928 10.0031 3.96018 9.97656 3.36523C9.94815 2.72241 9.82187 2.12582 9.375 1.66699C8.92816 1.20834 8.34765 1.07898 7.72168 1.0498C7.14202 1.02252 6.96737 1.0166 5.49902 1.0166ZM5.49902 2.74707C7.05849 2.74732 8.32324 4.04522 8.32324 5.64648C8.32317 7.24768 7.05845 8.54565 5.49902 8.5459C3.9394 8.5459 2.67488 7.24783 2.6748 5.64648C2.6748 4.04507 3.93935 2.74707 5.49902 2.74707ZM5.49805 3.76465C4.48564 3.76467 3.66505 4.60698 3.66504 5.64648C3.66504 6.686 4.48563 7.52928 5.49805 7.5293C6.51048 7.5293 7.33105 6.68601 7.33105 5.64648C7.33104 4.60697 6.51047 3.76465 5.49805 3.76465ZM8.43555 1.95508C8.80001 1.95525 9.09557 2.25859 9.0957 2.63281C9.0957 3.00715 8.80009 3.31135 8.43555 3.31152C8.07087 3.31152 7.77539 3.00726 7.77539 2.63281C7.77552 2.25849 8.07095 1.95508 8.43555 1.95508Z" fill="white"/>
</svg>
