<svg width="27" height="27" viewBox="0 0 27 27" fill="none" xmlns="http://www.w3.org/2000/svg">
<path d="M13.8672 18.3358C18.5223 18.3358 22.2961 14.5621 22.2961 9.90693C22.2961 5.25177 18.5223 1.47803 13.8672 1.47803C9.21204 1.47803 5.43829 5.25177 5.43829 9.90693C5.43829 14.5621 9.21204 18.3358 13.8672 18.3358Z" fill="#B8B4F3"/>
<path d="M6.55621 14.1087C7.27469 15.3418 8.29183 16.3742 9.51422 17.1107C10.7367 17.8471 12.1253 18.2647 13.5513 18.3235L7.47906 24.8089C7.3291 24.9682 7.13865 25.0837 6.92828 25.1439C6.71793 25.204 6.49525 25.2067 6.28375 25.1507C6.07242 25.0948 5.88012 24.9826 5.72711 24.8265C5.57404 24.6701 5.46613 24.4747 5.41461 24.262L5.1109 22.5862C5.06224 22.3366 4.93577 22.1082 4.75055 21.9339C4.56548 21.7598 4.33051 21.6481 4.07867 21.6146L2.36578 21.4085C2.15008 21.3758 1.94667 21.285 1.77789 21.1468C1.60929 21.0086 1.48131 20.8273 1.4068 20.6224C1.33224 20.4173 1.3145 20.1961 1.35504 19.9818C1.39558 19.7674 1.49304 19.5682 1.63727 19.4046L6.55621 14.1087ZM25.4664 19.2347C25.6099 19.3942 25.7087 19.589 25.7525 19.7991C25.7963 20.0093 25.7833 20.2273 25.7154 20.431C25.6475 20.6346 25.5269 20.8165 25.3658 20.9583C25.2046 21.1002 25.009 21.1971 24.7984 21.2386L23.0855 21.4456C22.8336 21.4792 22.5987 21.5908 22.4136 21.765C22.2284 21.9393 22.1019 22.1676 22.0533 22.4173L21.6773 24.1048C21.6327 24.3198 21.5301 24.5194 21.3814 24.681C21.2327 24.8424 21.043 24.9605 20.8326 25.0228C20.6221 25.085 20.3987 25.089 20.1861 25.0345C19.9734 24.9798 19.779 24.8683 19.6246 24.7122L13.649 18.3362H13.8677C15.281 18.335 16.6713 17.9783 17.9107 17.2991C19.1501 16.62 20.1989 15.64 20.9605 14.4495L25.4664 19.2347ZM13.9224 5.81476C14.0678 5.81483 14.2102 5.85596 14.3336 5.93292C14.457 6.01 14.5568 6.12051 14.6207 6.25128L15.2886 7.61163C15.3442 7.72418 15.4265 7.82186 15.5279 7.89581C15.6294 7.96972 15.7475 8.018 15.8716 8.03644L17.3775 8.25519C17.52 8.27719 17.6535 8.33837 17.7632 8.43195C17.873 8.5256 17.9544 8.64812 17.9986 8.78546C18.0427 8.92289 18.048 9.07016 18.0132 9.21027C17.9785 9.35026 17.9054 9.47755 17.8023 9.57843L16.7213 10.6351C16.6313 10.7239 16.565 10.8339 16.5269 10.9544C16.4889 11.0749 16.4799 11.2031 16.5025 11.3275L16.7584 12.8216C16.7916 12.9729 16.7783 13.1307 16.7213 13.2747C16.6641 13.4188 16.565 13.5427 16.4371 13.6302C16.3092 13.7175 16.1583 13.765 16.0035 13.7659C15.8485 13.7668 15.6969 13.721 15.5679 13.6351L14.2193 12.931C14.1093 12.8715 13.9859 12.8401 13.8609 12.8401C13.7361 12.8402 13.6133 12.8716 13.5035 12.931L12.1666 13.6351C12.0387 13.7025 11.8948 13.733 11.7505 13.723C11.6062 13.7129 11.4675 13.663 11.3502 13.5784C11.2328 13.4939 11.1417 13.3781 11.0865 13.2444C11.0313 13.1107 11.0142 12.9643 11.0377 12.8216L11.2925 11.3275C11.3185 11.2069 11.317 11.082 11.2877 10.9622C11.2582 10.8423 11.2016 10.73 11.1226 10.6351L10.0416 9.57843C9.93854 9.47755 9.86532 9.35023 9.83063 9.21027C9.79592 9.07016 9.80115 8.92289 9.84528 8.78546C9.88942 8.6481 9.97089 8.52562 10.0806 8.43195C10.1903 8.33835 10.3239 8.27723 10.4664 8.25519L11.9722 8.03644C12.0969 8.01899 12.2162 7.97094 12.3179 7.89679C12.4193 7.82277 12.5006 7.72465 12.5552 7.61163L13.2232 6.25128C13.2871 6.12053 13.3869 6.01 13.5103 5.93292C13.6338 5.85584 13.7769 5.81476 13.9224 5.81476Z" fill="#35316F"/>
</svg>
