<svg width="28" height="28" viewBox="0 0 28 28" fill="none" xmlns="http://www.w3.org/2000/svg">
<path d="M20.3077 2.23328H7.16884C5.74428 2.23959 4.38022 2.80993 3.37513 3.8195C2.37004 4.82906 1.80577 6.19564 1.80579 7.62022V15.7663C1.80579 17.195 2.37334 18.5652 3.38359 19.5755C4.39383 20.5857 5.76402 21.1533 7.19273 21.1533V21.1533C7.34796 21.1533 7.49682 21.2149 7.60659 21.3247C7.71635 21.4345 7.77801 21.5833 7.77801 21.7386V24.3305C7.79178 24.5368 7.85885 24.7359 7.97266 24.9085C8.08647 25.0811 8.24312 25.2212 8.4273 25.3151C8.61148 25.409 8.81687 25.4535 9.02339 25.4442C9.22991 25.4349 9.43049 25.3722 9.60551 25.2622L14.9447 21.3683C15.1444 21.2289 15.382 21.1539 15.6255 21.1533H20.2719C20.9823 21.158 21.6867 21.0222 22.3444 20.7536C23.0021 20.4849 23.6002 20.0889 24.1042 19.5882C24.6083 19.0875 25.0083 18.4921 25.2812 17.8361C25.5542 17.1802 25.6947 16.4768 25.6947 15.7663V7.62022C25.6947 6.19151 25.1271 4.82132 24.1169 3.81108C23.1066 2.80083 21.7364 2.23328 20.3077 2.23328V2.23328Z" fill="#B8B4F3"/>
<path fill-rule="evenodd" clip-rule="evenodd" d="M13.1171 13.9388C13.2851 14.1068 13.513 14.2012 13.7506 14.2012C13.9841 14.2013 14.2084 14.1102 14.3757 13.9473C14.543 13.7845 14.6402 13.5627 14.6464 13.3293V12.9948C14.6361 12.7964 14.6755 12.5985 14.7611 12.4192C14.8466 12.2398 14.9755 12.0846 15.1361 11.9676C15.5514 11.725 15.8957 11.3777 16.1347 10.9603C16.3736 10.5429 16.4988 10.0701 16.4977 9.58918C16.4966 9.10824 16.3693 8.63601 16.1285 8.21972C15.8876 7.80342 15.5417 7.45764 15.1253 7.21695C14.709 6.97627 14.2367 6.84911 13.7557 6.8482C13.2748 6.84728 12.802 6.97264 12.3847 7.21174C11.9674 7.45083 11.6202 7.79529 11.3778 8.21067C11.1354 8.62605 11.0063 9.09779 11.0033 9.57872C11.0033 9.81631 11.0977 10.0442 11.2657 10.2122C11.4337 10.3802 11.6616 10.4746 11.8992 10.4746C12.1368 10.4746 12.3646 10.3802 12.5326 10.2122C12.7006 10.0442 12.795 9.81631 12.795 9.57872C12.795 9.32529 12.8957 9.08224 13.0749 8.90304C13.2541 8.72384 13.4971 8.62317 13.7506 8.62317C14.004 8.62317 14.247 8.72384 14.4262 8.90304C14.6054 9.08224 14.7061 9.32529 14.7061 9.57872C14.7059 9.74436 14.6615 9.90693 14.5775 10.0497C14.4935 10.1925 14.373 10.3103 14.2283 10.3909C13.7966 10.6664 13.4434 11.0486 13.2027 11.5006C12.9621 11.9526 12.8422 12.459 12.8547 12.9709V13.3054C12.8547 13.543 12.9491 13.7708 13.1171 13.9388ZM14.6461 15.934C14.6461 16.4288 14.245 16.8299 13.7503 16.8299C13.2555 16.8299 12.8544 16.4288 12.8544 15.934C12.8544 15.4393 13.2555 15.0382 13.7503 15.0382C14.245 15.0382 14.6461 15.4393 14.6461 15.934Z" fill="#35316F"/>
</svg>
