<svg width="27" height="28" viewBox="0 0 27 28" fill="none" xmlns="http://www.w3.org/2000/svg">
<path d="M21.8815 17.5653C20.7994 15.9227 20.236 13.9929 20.2644 12.0261V11.821C20.2632 10.7013 19.9842 9.5994 19.4525 8.61399C18.9209 7.62858 18.1531 6.79042 17.218 6.17458C16.2828 5.55874 15.2096 5.18445 14.0943 5.08523C12.979 4.98601 11.8565 5.16496 10.8274 5.60605C9.62284 6.10407 8.59571 6.95249 7.87916 8.04129C7.16261 9.1301 6.78971 10.4091 6.8088 11.7124V11.7968C6.81665 13.9036 6.14363 15.9565 4.89002 17.6497L4.09354 18.772C3.77115 19.2134 3.59783 19.746 3.59876 20.2926V20.2926C3.59876 20.9711 3.8683 21.6219 4.34809 22.1016C4.82788 22.5814 5.47861 22.851 6.15714 22.851H20.5782C20.9142 22.851 21.2468 22.7848 21.5572 22.6562C21.8676 22.5277 22.1497 22.3392 22.3872 22.1016C22.6248 21.8641 22.8133 21.582 22.9418 21.2716C23.0704 20.9612 23.1366 20.6286 23.1366 20.2926V20.2202C23.1395 19.7049 22.9882 19.2006 22.7021 18.772L21.8815 17.5653Z" fill="#B8B4F3"/>
<path fill-rule="evenodd" clip-rule="evenodd" d="M14.2548 2.79388V5.12297C13.6519 5.05778 13.0431 5.07402 12.4446 5.17124C12.4392 5.13929 12.4392 5.10665 12.4446 5.0747V2.79388C12.4446 2.55384 12.5399 2.32362 12.7097 2.15389C12.8794 1.98415 13.1096 1.88879 13.3497 1.88879C13.5897 1.88879 13.8199 1.98415 13.9897 2.15389C14.1594 2.32362 14.2548 2.55384 14.2548 2.79388ZM11.8959 25.2816C11.4749 24.9598 11.1716 24.5084 11.0327 23.9972H15.6908C15.5519 24.5084 15.2485 24.9598 14.8276 25.2816C14.4067 25.6034 13.8916 25.7778 13.3617 25.7778C12.8319 25.7778 12.3168 25.6034 11.8959 25.2816ZM2.94732 12.7379C2.72997 12.7399 2.51936 12.6625 2.35496 12.5204C2.19056 12.3782 2.08366 12.1809 2.0543 11.9656C1.8156 10.5341 1.96891 9.06479 2.49796 7.71347C3.02701 6.36215 3.91207 5.17929 5.05919 4.29042C5.26083 4.1528 5.50888 4.10091 5.74877 4.14617C5.98867 4.19144 6.20075 4.33014 6.33838 4.53178C6.476 4.73342 6.52789 4.98147 6.48263 5.22136C6.43737 5.46126 6.29866 5.67334 6.09702 5.81097C5.23065 6.50552 4.56491 7.41831 4.16829 8.45547C3.77167 9.49263 3.65847 10.6167 3.84034 11.7121C3.8573 11.8296 3.85069 11.9492 3.8209 12.064C3.79111 12.1789 3.73873 12.2866 3.66683 12.381C3.59492 12.4754 3.50493 12.5545 3.40212 12.6137C3.2993 12.6729 3.18571 12.711 3.068 12.7258L2.94732 12.7379ZM23.6076 12.7379H23.7283C23.9531 12.7386 24.17 12.6546 24.3355 12.5024C24.501 12.3503 24.6031 12.1414 24.6213 11.9173C24.8509 10.4934 24.693 9.03388 24.1643 7.69196C23.6356 6.35003 22.7556 5.17511 21.6164 4.29042C21.5166 4.22227 21.4043 4.17446 21.286 4.14971C21.1677 4.12496 21.0456 4.12376 20.9269 4.14617C20.687 4.19143 20.4749 4.33014 20.3373 4.53177C20.2691 4.63162 20.2213 4.7439 20.1965 4.86222C20.1718 4.98054 20.1706 5.10257 20.193 5.22136C20.2154 5.34014 20.261 5.45335 20.3272 5.55451C20.3933 5.65568 20.4788 5.74282 20.5786 5.81097C21.444 6.50904 22.1088 7.42412 22.5053 8.46291C22.9017 9.50171 23.0156 10.627 22.8353 11.7242C22.8183 11.8416 22.8249 11.9613 22.8547 12.0761C22.8845 12.1909 22.9369 12.2987 23.0088 12.3931C23.0807 12.4874 23.1707 12.5665 23.2735 12.6258C23.3763 12.685 23.4899 12.7231 23.6076 12.7379Z" fill="#35316F"/>
</svg>
