<svg width="18" height="18" viewBox="0 0 18 18" fill="none" xmlns="http://www.w3.org/2000/svg">
<path fill-rule="evenodd" clip-rule="evenodd" d="M2.33463 2.6313C2.33208 2.64711 2.33071 2.67429 2.3564 2.72052L5.44979 8.28699C5.45838 8.30245 5.46673 8.31801 5.47484 8.33366L8.90066 8.33366C9.3609 8.33366 9.734 8.70675 9.734 9.16699C9.734 9.62723 9.3609 10.0003 8.90066 10.0003L5.47484 10.0003C5.46673 10.016 5.45838 10.0315 5.44979 10.047L2.3564 15.6135C2.3307 15.6597 2.33208 15.6869 2.33462 15.7027C2.33825 15.7252 2.35113 15.7557 2.37845 15.7842C2.40578 15.8127 2.4357 15.827 2.45822 15.8316C2.47408 15.8349 2.50134 15.8374 2.54875 15.8137L15.5864 9.2968C15.6935 9.24326 15.6935 9.09071 15.5864 9.03718L2.54875 2.52029C2.50134 2.49659 2.47408 2.49912 2.45822 2.50238C2.43571 2.50701 2.40578 2.52126 2.37845 2.54979C2.35113 2.57832 2.33825 2.60876 2.33463 2.6313ZM0.89957 3.53011C0.0337305 1.97205 1.7012 0.23336 3.29393 1.02949L16.3315 7.54638C17.6673 8.21406 17.6673 10.1199 16.3315 10.7876L3.29393 17.3045C1.7012 18.1006 0.03373 16.3619 0.899568 14.8039L3.99296 9.2374C4.0173 9.1936 4.0173 9.14037 3.99296 9.09657L0.89957 3.53011Z" fill="#35316F"/>
</svg>
