<svg width="27" height="28" viewBox="0 0 27 28" fill="none" xmlns="http://www.w3.org/2000/svg">
<path d="M18.0892 2.93597H8.59214C4.75522 2.93597 1.64478 6.04642 1.64478 9.88334V19.2752C1.64478 23.1121 4.75522 26.2225 8.59214 26.2225H18.0892C21.9261 26.2225 25.0366 23.1121 25.0366 19.2752V9.88334C25.0366 6.04642 21.9261 2.93597 18.0892 2.93597Z" fill="#B8B4F3"/>
<path d="M19.3992 10.4446L18.7091 9.88322C18.5056 9.7286 18.2571 9.64488 18.0015 9.64488C17.7459 9.64488 17.4974 9.7286 17.2939 9.88322L16.6156 10.4446C16.4442 10.5669 16.2431 10.6407 16.0333 10.6582C15.8235 10.6757 15.6129 10.6363 15.4237 10.544C15.2345 10.4518 15.0736 10.3102 14.9582 10.1342C14.8427 9.95824 14.7768 9.75433 14.7676 9.54404V2.94754C14.7676 2.63735 14.8908 2.33986 15.1102 2.12052C15.3295 1.90118 15.627 1.77795 15.9372 1.77795H20.136C20.4462 1.77795 20.7437 1.90118 20.963 2.12052C21.1824 2.33986 21.3056 2.63735 21.3056 2.94754V9.54404C21.3042 9.76437 21.2405 9.97981 21.122 10.1655C21.0034 10.3513 20.8348 10.4998 20.6356 10.5939C20.4364 10.688 20.2146 10.7239 19.9959 10.6975C19.7771 10.6711 19.5703 10.5834 19.3992 10.4446V10.4446ZM15.5161 14.5616C15.5177 14.4439 15.4958 14.327 15.4519 14.2178C15.4079 14.1086 15.3427 14.0093 15.26 13.9255C15.1773 13.8417 15.0788 13.7752 14.9701 13.7298C14.8615 13.6844 14.745 13.661 14.6273 13.661H8.66234C8.54462 13.661 8.42806 13.6844 8.31945 13.7298C8.21084 13.7752 8.11232 13.8417 8.02963 13.9255C7.94693 14.0093 7.8817 14.1086 7.83772 14.2178C7.79375 14.327 7.7719 14.4439 7.77345 14.5616C7.7719 14.6799 7.79367 14.7973 7.8375 14.9071C7.88134 15.017 7.94639 15.1171 8.02893 15.2018C8.11147 15.2866 8.2099 15.3542 8.31858 15.4009C8.42726 15.4475 8.54407 15.4723 8.66234 15.4739H14.6273C14.7455 15.4723 14.8623 15.4475 14.971 15.4009C15.0797 15.3542 15.1781 15.2866 15.2607 15.2018C15.3432 15.1171 15.4082 15.017 15.4521 14.9071C15.4959 14.7973 15.5177 14.6799 15.5161 14.5616V14.5616ZM18.2296 19.1581C18.2296 18.9181 18.1351 18.6878 17.9665 18.5171C17.798 18.3463 17.5689 18.2489 17.329 18.2458H7.87871C7.63676 18.2458 7.40472 18.3419 7.23363 18.513C7.06255 18.6841 6.96643 18.9161 6.96643 19.1581C6.96643 19.4 7.06255 19.6321 7.23363 19.8032C7.40472 19.9742 7.63676 20.0704 7.87871 20.0704H17.329C17.5669 20.0673 17.7942 19.9715 17.9625 19.8032C18.1307 19.635 18.2266 19.4077 18.2296 19.1698V19.1581Z" fill="#35316F"/>
</svg>
