<svg width="102" height="83" viewBox="0 0 102 83" fill="none" xmlns="http://www.w3.org/2000/svg">
<path d="M84.5064 6.35814C84.7625 5.32051 86.2376 5.32051 86.4938 6.35814C87.5872 10.7873 91.0455 14.2455 95.4747 15.3388C96.5123 15.595 96.5123 17.0701 95.4747 17.3263C91.0455 18.4196 87.5872 21.8778 86.4938 26.307C86.2376 27.3446 84.7625 27.3446 84.5064 26.307C83.4129 21.8778 79.9546 18.4196 75.5255 17.3263C74.4878 17.0701 74.4878 15.595 75.5255 15.3388C79.9546 14.2455 83.4129 10.7873 84.5064 6.35814Z" fill="#35316F"/>
<path d="M95.4364 1.96271C95.54 1.54272 96.1371 1.54272 96.2408 1.96272C96.6834 3.75546 98.0831 5.1552 99.8759 5.59776C100.296 5.70144 100.296 6.29852 99.8759 6.4022C98.0831 6.84475 96.6834 8.2445 96.2408 10.0372C96.1371 10.4572 95.54 10.4572 95.4364 10.0372C94.9938 8.2445 93.594 6.84475 91.8012 6.4022C91.3812 6.29852 91.3812 5.70144 91.8012 5.59776C93.594 5.1552 94.9938 3.75546 95.4364 1.96271Z" fill="#B8B4F3"/>
<path d="M60.9423 55.7137C58.041 54.0783 58.0337 49.9757 60.9301 48.3308L77.9392 38.669L84.5615 34.9072C92.0738 30.6401 101.483 35.9442 101.495 44.4546L101.5 47.537C101.522 61.3468 86.2857 70.0026 74.0724 63.118L60.9423 55.7137Z" fill="#35316F"/>
<path d="M70.7845 27.1838C75.4344 29.8156 75.4344 36.3951 70.7845 39.0269L66.9858 41.1772L56.7327 46.9795C54.95 47.9879 52.7248 46.7268 52.7248 44.7101V33.1054V24.347C52.7248 21.0644 56.3484 19.0143 59.2473 20.6544L66.9858 25.0336L70.7845 27.1838Z" fill="#B8B4F3"/>
<path d="M63.1895 81.151C58.5396 83.7828 52.7248 80.493 52.7248 75.2295V70.9313V59.3266C52.7248 57.3099 54.9525 56.0488 56.7327 57.0572L66.9858 62.8595L74.7243 67.2387C77.6232 68.8788 77.6232 72.9815 74.7243 74.6216L66.9858 79.0007L63.1871 81.151H63.1895Z" fill="#B8B4F3"/>
<path d="M41.3051 55.7137C44.2064 54.0784 44.2137 49.9757 41.3173 48.3308L24.3082 38.669L17.6859 34.9072C10.176 30.6377 0.766794 35.9442 0.752202 44.4547L0.747338 47.5346C0.72545 61.3444 15.9617 70.0002 28.175 63.1156L41.3051 55.7113V55.7137Z" fill="#35316F"/>
<path d="M31.4494 27.1838C26.7995 29.8156 26.7995 36.3951 31.4494 39.0269L35.2481 41.1772L45.5013 46.9795C47.2839 47.9879 49.5091 46.7268 49.5091 44.7101V33.1054V24.347C49.5091 21.0644 45.8855 19.0143 42.9866 20.6544L35.2481 25.0336L31.4494 27.1838Z" fill="#B8B4F3"/>
<path d="M39.0498 81.151C43.6997 83.7828 49.5145 80.493 49.5145 75.2295V70.9313V59.3266C49.5145 57.3099 47.2869 56.0488 45.5067 57.0572L35.2535 62.8595L27.5151 67.2387C24.6162 68.8788 24.6162 72.9815 27.5151 74.6216L35.2535 79.0007L39.0523 81.151H39.0498Z" fill="#B8B4F3"/>
</svg>
