<svg width="41" height="26" viewBox="0 0 41 26" fill="none" xmlns="http://www.w3.org/2000/svg">
<g clip-path="url(#clip0_2060_24035)">
<path d="M24.2678 14.5424C23.1166 13.8811 23.1137 12.222 24.2629 11.5568L31.0115 7.64954L33.639 6.12829C36.6196 4.40267 40.3528 6.54765 40.3576 9.98925L40.3595 11.2357C40.3682 16.8204 34.3231 20.3208 29.4773 17.5367L24.2678 14.5424Z" fill="white"/>
<path d="M28.1755 3.00477C30.0205 4.06907 30.0205 6.7298 28.1755 7.7941L26.6684 8.66366L22.6003 11.0101C21.893 11.4179 21.0101 10.9079 21.0101 10.0924V5.39943V1.85757C21.0101 0.530094 22.4478 -0.298976 23.598 0.36428L26.6684 2.13521L28.1755 3.00477Z" fill="white"/>
<path d="M25.1612 24.8284C23.3163 25.8927 21.0092 24.5623 21.0092 22.4337V20.6956V16.0027C21.0092 15.1871 21.893 14.6771 22.5993 15.0849L26.6674 17.4314L29.7377 19.2023C30.8879 19.8655 30.8879 21.5246 29.7377 22.1879L26.6674 23.9588L25.1602 24.8284H25.1612Z" fill="white"/>
<path d="M16.4771 14.5423C17.6282 13.881 17.6311 12.2219 16.4819 11.5567L9.7333 7.64945L7.10586 6.12821C4.12622 4.40162 0.392983 6.54756 0.387193 9.98917L0.385263 11.2347C0.376579 16.8194 6.42174 20.3198 11.2675 17.5356L16.4771 14.5413V14.5423Z" fill="white"/>
<path d="M12.5692 3.00477C10.7243 4.06907 10.7243 6.7298 12.5692 7.7941L14.0764 8.66366L18.1444 11.0101C18.8517 11.4179 19.7346 10.9079 19.7346 10.0924V5.39943V1.85757C19.7346 0.530094 18.2969 -0.298976 17.1467 0.36428L14.0764 2.13521L12.5692 3.00477Z" fill="white"/>
<path d="M15.5826 24.8284C17.4275 25.8927 19.7346 24.5623 19.7346 22.4337V20.6956V16.0027C19.7346 15.1871 18.8507 14.6771 18.1444 15.0849L14.0763 17.4314L11.006 19.2023C9.85583 19.8655 9.85583 21.5246 11.006 22.1879L14.0763 23.9588L15.5835 24.8284H15.5826Z" fill="white"/>
<path d="M31.931 1.91797C31.3501 1.91797 30.8773 2.39035 30.8773 2.97069C30.8773 3.55104 31.3501 4.02342 31.931 4.02342C32.5119 4.02342 32.9847 3.55104 32.9847 2.97069C32.9847 2.39035 32.5119 1.91797 31.931 1.91797ZM31.931 3.89231C31.4225 3.89231 31.0085 3.47874 31.0085 2.97069C31.0085 2.46265 31.4225 2.04908 31.931 2.04908C32.4395 2.04908 32.8535 2.46265 32.8535 2.97069C32.8535 3.47874 32.4395 3.89231 31.931 3.89231Z" fill="white"/>
<path d="M32.1549 3.12044C32.3228 3.05778 32.4077 2.92474 32.4077 2.72133C32.4077 2.58444 32.3662 2.4755 32.2842 2.39452C32.2079 2.3174 32.0892 2.27884 31.9281 2.2798H31.5142L31.5171 3.66416H31.712V3.02211H31.7149L32.1568 3.66319H32.3999L32.0256 3.14647C32.0651 3.14647 32.1085 3.13683 32.1549 3.12044ZM31.8442 2.99415H31.71V2.4649H31.9156C31.9985 2.4649 32.069 2.48611 32.1259 2.53045C32.1828 2.5748 32.2118 2.63842 32.2118 2.72229C32.2118 2.77532 32.2012 2.81966 32.1799 2.85726C32.1587 2.89486 32.1288 2.92281 32.0921 2.94113C32.0545 2.96041 32.0159 2.97391 31.9764 2.98162C31.9368 2.98933 31.8924 2.99415 31.8451 2.99415H31.8442Z" fill="white"/>
</g>
<defs>
<clipPath id="clip0_2060_24035">
<rect width="39.9743" height="25.0726" fill="white" transform="translate(0.385254 0.130859)"/>
</clipPath>
</defs>
</svg>
