<svg width="194" height="107" viewBox="0 0 194 107" fill="none" xmlns="http://www.w3.org/2000/svg">
<g clip-path="url(#clip0_2112_29042)">
<path d="M101.711 69.4812C101.263 69.4812 100.881 69.6373 100.57 69.9494C100.259 70.2615 100.103 70.6439 100.103 71.0939C100.103 71.5439 100.259 71.908 100.57 72.2254C100.881 72.5453 101.263 72.704 101.711 72.704C102.16 72.704 102.518 72.5453 102.829 72.2254C103.14 71.9054 103.296 71.5283 103.296 71.0939C103.296 70.6595 103.14 70.2615 102.829 69.9494C102.518 69.6373 102.144 69.4812 101.711 69.4812Z" fill="white"/>
<path d="M98.018 69.4812C97.5823 69.4812 97.2114 69.6373 96.9002 69.9494C96.589 70.2615 96.4333 70.6439 96.4333 71.0939C96.4333 71.5439 96.589 71.908 96.9002 72.2254C97.2114 72.5453 97.5849 72.704 98.018 72.704C98.4511 72.704 98.8453 72.5453 99.1592 72.2254C99.4704 71.9054 99.626 71.5283 99.626 71.0939C99.626 70.6595 99.4704 70.2615 99.1592 69.9494C98.8479 69.6373 98.4667 69.4812 98.018 69.4812Z" fill="white"/>
<path d="M134.53 55.235H131.75V63.2515H112.202V60.484C112 56.1427 110.125 53.9708 106.577 53.9708L104.556 53.9916C102.775 54.0358 101.467 54.5587 100.635 55.5601C99.8024 56.5615 99.3848 57.7814 99.3848 59.2198V61.8131H104.359C105.228 62.0602 105.664 62.7781 105.664 63.9694C105.664 64.5651 105.454 65.0723 105.034 65.4937C104.613 65.9151 104.108 66.1258 103.514 66.1258H97.214C94.8539 66.1258 93.6738 64.8486 93.6738 62.2917C93.6738 60.9834 94.3845 59.8389 95.8031 58.8505L94.566 56.4107C92.1332 57.8491 90.9169 59.8467 90.9169 62.401C91.1062 66.7292 93.264 68.8933 97.3904 68.8933H103.516C104.862 68.8933 106.017 68.4095 106.981 67.4445C107.944 66.4795 108.426 65.322 108.426 63.9694C108.426 62.1695 107.98 60.8976 107.09 60.1562C106.201 59.4149 105.153 59.0456 103.952 59.0456H102.15C102.15 57.5057 102.966 56.7358 104.603 56.7358H106.709C108.532 56.7358 109.445 57.9843 109.445 60.4814V66.0347H132.274C132.896 66.0347 133.428 65.8136 133.871 65.3714C134.312 64.9293 134.533 64.396 134.533 63.7718V55.2324L134.53 55.235Z" fill="white"/>
<path d="M132.053 66.802C131.589 66.802 131.2 66.9659 130.881 67.291C130.562 67.6188 130.404 68.0063 130.404 68.4563C130.404 68.9063 130.562 69.2913 130.881 69.6112C131.2 69.9311 131.589 70.0898 132.053 70.0898C132.517 70.0898 132.886 69.9311 133.205 69.6112C133.524 69.2913 133.682 68.9063 133.682 68.4563C133.682 68.0063 133.521 67.6188 133.205 67.291C132.886 66.9633 132.502 66.802 132.053 66.802Z" fill="white"/>
<path d="M178.841 50.3761L178.82 63.2515H164.654C165.637 61.9718 166.135 60.7363 166.135 59.5476C166.135 58.9389 166.013 58.3485 165.767 57.784C165.012 56.2312 163.645 55.2271 161.661 54.7772C161.14 54.6757 160.603 54.6237 160.053 54.6237C158.372 54.6237 156.57 55.1387 154.646 56.1713L154.08 56.4549L153.276 60.8325L155.992 63.2515H142.155V56.8476H139.375V66.7162C139.375 67.7618 139.009 68.6514 138.278 69.3849C137.546 70.1184 136.659 70.4852 135.617 70.4852H134.206V73.2736H135.617C137.411 73.2736 138.949 72.6311 140.233 71.3462C141.514 70.0612 142.155 68.5188 142.155 66.7162V66.0399H156.86C158.02 66.0399 159.171 65.72 160.315 65.0827L160.121 65.2128V66.0399H179.736C180.257 66.0399 180.708 65.8526 181.092 65.4729C181.476 65.0957 181.668 64.6457 181.668 64.1229L181.647 50.3761H178.846H178.841ZM162.875 60.3305C162.325 61.4204 161.412 62.414 160.139 63.314L155.989 59.5892L156.248 58.2158C157.48 57.5915 158.66 57.2794 159.789 57.2794C160.152 57.2794 160.504 57.3158 160.852 57.3887C161.952 57.6358 162.675 58.1066 163.023 58.8037C163.111 58.9935 163.152 59.1808 163.152 59.3707C163.152 59.675 163.059 59.995 162.87 60.3305H162.875Z" fill="white"/>
<path d="M191.22 55.235V63.2515H186.398L186.378 50.3761H183.577L183.556 64.1229C183.556 64.6457 183.748 65.0957 184.132 65.4729C184.515 65.85 184.967 66.0399 185.488 66.0399H191.744C192.366 66.0399 192.898 65.8188 193.341 65.3766C193.782 64.9345 194.003 64.4012 194.003 63.777V55.2376H191.222L191.22 55.235Z" fill="white"/>
<path d="M191.523 66.802C191.059 66.802 190.67 66.9659 190.351 67.291C190.032 67.6188 189.874 68.0063 189.874 68.4563C189.874 68.9063 190.032 69.2913 190.351 69.6112C190.67 69.9311 191.059 70.0898 191.523 70.0898C191.987 70.0898 192.356 69.9311 192.675 69.6112C192.994 69.2913 193.152 68.9063 193.152 68.4563C193.152 68.0063 192.991 67.6188 192.675 67.291C192.356 66.9633 191.972 66.802 191.523 66.802Z" fill="white"/>
<path d="M51.106 66.7004H51.1163C54.5346 66.1854 57.8544 65.1502 60.9951 63.5921H61.0055L78.5146 72.6205L72.2537 54.5091V54.4987C76.0844 49.7049 78.499 43.959 79.2667 37.8334C81.5386 19.5867 68.5917 2.88246 50.3953 0.596095C34.5902 -1.39375 19.9497 8.14448 14.8767 22.6352C14.8663 22.6352 14.8767 22.6456 14.8767 22.6456L19.8667 19.181C26.7707 6.56562 42.3086 -0.264869 57.5224 5.64483C66.5142 9.1303 73.3353 16.8894 75.5268 26.3002C77.8143 36.1453 75.366 45.9385 69.2686 53.1695L68.9262 53.5779C68.781 53.7496 68.7395 53.9837 68.8121 54.1944L72.9592 66.2036L61.2856 60.1873C61.1015 60.0858 60.881 60.0936 60.6969 60.1873L60.2612 60.4136C58.6999 61.2407 57.0789 61.9222 55.4268 62.4528H55.4164L51.106 66.7004Z" fill="#FF7F50"/>
<path d="M33.3817 19.3917C33.9522 19.3917 34.5306 19.4125 35.1064 19.4515C39.0252 19.722 42.7106 20.8743 46.0615 22.8797C49.262 24.7941 52.0396 27.4629 54.0963 30.5946C56.1426 33.7107 57.4783 37.3028 57.9581 40.9808C58.4742 44.9397 58.0359 48.948 56.6536 52.8964C54.641 58.6397 50.385 63.5245 44.9774 66.2999L44.967 66.3051L44.9567 66.3103C43.0763 67.2909 41.0689 68.0114 38.9863 68.4484C37.1527 68.836 35.2957 69.031 33.4698 69.031C30.412 69.031 27.4398 68.4926 24.6362 67.4262C22.4239 66.5886 20.3257 65.4129 18.4039 63.9381L17.561 63.2956L16.5158 63.1968L15.8207 63.1318L15.149 63.3268L8.83891 65.1658L7.77555 65.4753L8.22683 64.6976L11.3961 59.2379L11.8007 58.533L11.8785 57.7319L11.9823 56.6446L11.4791 55.677C10.2342 53.2866 9.39652 50.7401 8.98415 48.1078V48.1L8.98155 48.0922C8.69367 46.2948 8.61067 44.4168 8.73776 42.518C9.08789 37.4563 10.9371 32.6963 14.0882 28.753L14.5966 28.1158C19.3272 22.5598 26.1353 19.3891 33.3946 19.3891M33.3946 15.7163C24.5351 15.7163 16.4847 19.8677 11.2405 26.4198C11.2405 26.438 11.2276 26.4458 11.2276 26.4562C7.73146 30.8313 5.49582 36.2702 5.08086 42.2631C4.93562 44.4272 5.0238 46.5654 5.36355 48.6748C5.83558 51.6999 6.80297 54.6366 8.22942 57.3781V57.3885L5.06011 62.8482L2.93858 66.5158L0.0130615 71.5463L5.69293 69.9024L9.85817 68.6929L16.1735 66.8539H16.1838C18.3858 68.5446 20.7926 69.8946 23.3498 70.8648C26.5425 72.0769 29.9608 72.7064 33.4776 72.7064C35.5421 72.7064 37.6429 72.4879 39.7488 72.0457C42.1816 71.5359 44.4976 70.6984 46.658 69.5721C52.8722 66.3831 57.7584 60.861 60.1211 54.1163C66.6802 35.3676 53.6139 17.0481 35.3709 15.7891C34.707 15.7423 34.0482 15.7215 33.3946 15.7215V15.7163Z" fill="#FF7F50"/>
<path d="M24.7503 56.0333C21.6432 53.6168 19.7837 50.4929 19.169 46.6589C18.5543 42.8249 19.3453 39.2744 21.5421 35.997C23.7362 32.7274 26.8692 30.7636 30.9359 30.1081C35.0052 29.4526 38.6439 30.259 41.8522 32.5193C45.0604 34.7849 46.9926 37.966 47.6487 42.0654C48.3049 46.1647 47.4646 49.7932 45.1226 52.9483C42.7832 56.1087 39.5776 58.0127 35.5083 58.6682C31.4391 59.3236 27.8522 58.4497 24.7477 56.0307L24.7503 56.0333Z" fill="white"/>
<path d="M118.891 32.0226C118.891 33.846 118.562 35.4301 117.903 36.7749C117.241 38.1196 116.303 39.2303 115.084 40.1095C113.862 40.9912 112.415 41.6545 110.732 42.1019C109.051 42.5493 107.189 42.773 105.145 42.773C104.844 42.773 104.497 42.773 104.206 42.7652V42.7574H90.9143V36.5564H104.266C104.427 36.5486 104.816 36.5486 105.078 36.5486C106.198 36.5486 107.155 36.4445 108.014 36.1714C108.869 35.9009 109.596 35.5471 110.19 35.1154C110.783 34.6836 111.23 34.1868 111.525 33.6275C111.821 33.0683 111.969 32.5169 111.969 31.9706C111.969 31.2657 111.748 30.6675 111.302 30.1707C110.856 29.6739 110.265 29.2681 109.523 28.9455C108.781 28.6282 107.907 28.3551 106.904 28.1314C105.897 27.9077 104.852 27.6996 103.763 27.5071C103.037 27.3771 102.196 27.2262 101.242 27.0519C100.285 26.8751 99.2966 26.6358 98.2748 26.3314C97.2529 26.0271 96.2466 25.6291 95.2585 25.1323C94.2703 24.6355 93.3808 24.0113 92.5897 23.2595C91.7987 22.5078 91.1633 21.613 90.6861 20.5726C90.2063 19.5348 89.9677 18.3097 89.9677 16.8999C89.9677 14.8528 90.3956 13.1491 91.254 11.7887C92.1099 10.4283 93.207 9.35667 94.5427 8.57374C95.8783 7.7908 97.3619 7.23677 98.9932 6.91683C100.479 6.62551 101.911 6.48505 103.301 6.45904V6.45384H103.402C103.506 6.45384 103.612 6.43823 103.713 6.43823C103.882 6.43823 104.035 6.44864 104.193 6.45384H116.777V12.6549H103.301V12.6393C102.741 12.6627 102.056 12.7641 101.392 12.8916C100.632 13.0372 99.9165 13.2687 99.2422 13.5887C98.5653 13.9086 98.0051 14.317 97.559 14.8138C97.1155 15.3106 96.8924 15.9114 96.8924 16.6137C96.8924 17.316 97.157 17.9091 97.6835 18.3903C98.2099 18.8689 98.8869 19.2695 99.7116 19.5894C100.534 19.9093 101.442 20.1798 102.432 20.4035C103.42 20.6272 104.377 20.8535 105.301 21.0746C105.993 21.2359 106.81 21.3946 107.749 21.5558C108.688 21.7171 109.66 21.9408 110.667 22.2269C111.673 22.5156 112.669 22.898 113.66 23.3792C114.648 23.8604 115.53 24.4769 116.305 25.2286C117.078 25.9803 117.706 26.9089 118.183 28.0144C118.66 29.1172 118.899 30.4542 118.896 32.0226H118.891Z" fill="white"/>
<path d="M149.448 35.62V42.3438H146.74C144.186 42.3438 140.376 40.3696 137.78 36.9986L131.371 28.6751H131.205V42.3465H124.555V1.56902L131.205 0.333496V26.8959H131.371L141.455 15.6722H149.5L138.462 27.7309L141.45 31.2944C145.516 36.4107 149.448 35.62 149.448 35.62Z" fill="white"/>
<path d="M156.082 16.1612L162.732 14.8893V42.3465H156.082V16.1612Z" fill="white"/>
<path d="M169.302 16.1612L175.952 14.8893V42.3465H169.302V16.1612Z" fill="white"/>
<path d="M194 27.1768V42.3464H187.293V27.1768H187.298C187.298 24.0477 184.77 21.5116 181.65 21.5116C178.53 21.5116 176.045 24.0113 176.006 27.1066C176.006 27.13 176.009 27.1534 176.009 27.1768C176.009 27.1872 176.009 27.2002 176.009 27.2106H176.006V42.3464H169.302V27.1768C169.302 20.3359 174.831 14.793 181.65 14.793C188.468 14.793 193.997 20.3385 193.997 27.1768H194Z" fill="white"/>
<path d="M185.366 26.9817H177.938V28.3915H185.366V26.9817Z" fill="white"/>
<path d="M185.366 29.9703H177.938V31.3801H185.366V29.9703Z" fill="white"/>
<path d="M185.366 32.9591H177.938V34.3689H185.366V32.9591Z" fill="white"/>
<path d="M5.21301 85.1891H14.0233C19.9184 85.1891 22.3693 88.4691 22.3693 92.4514C22.3693 96.4336 20.2893 99.3781 15.6987 99.3781C13.3723 99.3781 11.8525 98.7954 10.3949 96.9877V106.026H5.21561V85.1891H5.21301ZM14.0855 94.964C16.1007 94.964 17.0629 93.8299 17.0629 92.3291C17.0629 90.8283 16.1941 89.6032 13.7743 89.6032H10.3923V94.9666H14.0855V94.964Z" fill="white"/>
<path d="M36.2682 98.3663C36.2682 93.0341 39.4634 90.3992 44.552 90.3992C49.6405 90.3992 52.8047 93.0341 52.8047 98.3663C52.8047 103.699 49.6716 106.334 44.552 106.334C39.4323 106.334 36.2682 103.699 36.2682 98.3663ZM47.7472 98.3663C47.7472 95.7626 46.7228 94.1369 44.552 94.1369C42.3812 94.1369 41.3567 95.76 41.3567 98.3663C41.3567 100.973 42.4123 102.596 44.552 102.596C46.6917 102.596 47.7472 100.973 47.7472 98.3663Z" fill="white"/>
<path d="M82.2466 83.964V106.027H77.2825V101.797C75.9806 105.259 74.2118 106.333 72.041 106.333C68.9391 106.333 67.2325 103.605 67.2325 99.5316C67.2325 92.7583 71.141 90.3991 76.5408 90.3991H77.2851V83.964H82.2492H82.2466ZM77.7805 94.2904C77.2229 94.1993 76.5408 94.1369 75.9183 94.1369C73.0654 94.1369 72.0721 95.4244 72.0721 97.7524C72.0721 100.356 72.7853 102.593 74.0588 102.593C76.0765 102.593 77.005 99.3755 77.7805 94.2878V94.2904Z" fill="white"/>
<path d="M97.3877 98.3663C97.3877 93.1251 100.552 90.3992 106.354 90.3992C108.307 90.3992 109.951 90.6749 111.224 91.013C111.224 92.1471 110.944 93.8638 110.636 94.7508C109.704 94.4439 107.967 94.1369 106.354 94.1369C103.438 94.1369 102.476 95.8537 102.476 98.3663C102.476 100.879 103.438 102.596 106.354 102.596C108.278 102.596 109.982 102.32 111.224 101.982C111.224 103.147 110.944 104.892 110.636 105.72C109.549 106.058 108.029 106.334 106.354 106.334C100.521 106.334 97.3877 103.605 97.3877 98.3663Z" fill="white"/>
<path d="M140.078 90.7061V106.029H135.113V101.8C133.812 105.262 132.043 106.336 129.872 106.336C126.77 106.336 125.063 103.608 125.063 99.5342C125.063 92.7609 128.972 90.4017 134.372 90.4017C136.265 90.4017 138.156 90.5552 140.08 90.7087L140.078 90.7061ZM135.611 94.2904C135.054 94.1993 134.372 94.1369 133.749 94.1369C130.896 94.1369 129.903 95.4245 129.903 97.7524C129.903 100.356 130.616 102.593 131.89 102.593C133.907 102.593 134.836 99.3755 135.611 94.2878V94.2904Z" fill="white"/>
<path d="M155.748 105.629C155.374 104.586 155.097 103.147 155.003 102.104C156.243 102.442 158.666 102.809 160.525 102.809C162.82 102.809 163.44 102.471 163.44 101.644C163.44 99.2845 155.281 101.43 155.281 95.5467C155.281 92.1159 158.134 90.3992 162.942 90.3992C164.649 90.3992 166.571 90.7373 167.813 91.1041C167.751 92.0535 167.502 93.6792 167.193 94.5661C165.611 94.1682 164.306 93.9237 162.942 93.9237C161.111 93.9237 160.367 94.3216 160.367 95.1202C160.367 97.2947 168.526 95.0889 168.526 101.066C168.526 105.02 165.3 106.336 161.111 106.336C159.405 106.336 156.521 105.998 155.745 105.631L155.748 105.629Z" fill="white"/>
<path d="M191.272 102.596C192.172 102.596 193.04 102.505 194.003 102.32C194.003 103.301 193.691 104.986 193.445 105.782C192.576 106.12 191.087 106.333 189.848 106.333C185.877 106.333 183.675 104.648 183.675 100.694V94.4438H181.193C181.193 93.3722 181.286 91.6867 181.473 90.7061H183.675V88.5289C184.855 87.335 187.026 86.1697 188.639 85.803V91.0728C190.592 90.7971 192.146 90.7061 194.005 90.7061C194.005 92.1757 193.725 93.034 193.323 94.4438C191.866 94.4438 190.592 94.4438 188.639 94.2592V99.9894C188.639 102.042 189.879 102.593 191.277 102.593L191.272 102.596Z" fill="white"/>
</g>
<defs>
<clipPath id="clip0_2112_29042">
<rect width="194" height="106" fill="white" transform="translate(0 0.333496)"/>
</clipPath>
</defs>
</svg>
